<?xml version="1.0" encoding="UTF-8" standalone="no"?>
<!-- Created with Inkscape (http://www.inkscape.org/) -->

<svg
   xmlns:dc="http://purl.org/dc/elements/1.1/"
   xmlns:cc="http://creativecommons.org/ns#"
   xmlns:rdf="http://www.w3.org/1999/02/22-rdf-syntax-ns#"
   xmlns:svg="http://www.w3.org/2000/svg"
   xmlns="http://www.w3.org/2000/svg"
   xmlns:xlink="http://www.w3.org/1999/xlink"
   xmlns:sodipodi="http://sodipodi.sourceforge.net/DTD/sodipodi-0.dtd"
   xmlns:inkscape="http://www.inkscape.org/namespaces/inkscape"
   width="140.30702mm"
   height="51.997818mm"
   viewBox="0 0 140.30702 51.997818"
   version="1.1"
   id="svg7496"
   sodipodi:docname="button_play.svg"
   inkscape:version="0.92.4 (unknown)">
  <defs
     id="defs7490">
    <linearGradient
       id="linearGradient11360"
       inkscape:collect="always">
      <stop
         id="stop11356"
         offset="0"
         style="stop-color:#ffffff;stop-opacity:0.529" />
      <stop
         id="stop11358"
         offset="1"
         style="stop-color:#ff0032;stop-opacity:0.13725491" />
    </linearGradient>
    <linearGradient
       inkscape:collect="always"
       id="linearGradient11120">
      <stop
         style="stop-color:#ffffff;stop-opacity:0.143"
         offset="0"
         id="stop11116" />
      <stop
         style="stop-color:#ffffff;stop-opacity:0.75"
         offset="1"
         id="stop11118" />
    </linearGradient>
    <linearGradient
       inkscape:collect="always"
       id="linearGradient11061">
      <stop
         style="stop-color:#5bff00;stop-opacity:1"
         offset="0"
         id="stop11057" />
      <stop
         style="stop-color:#006100;stop-opacity:0;"
         offset="1"
         id="stop11059" />
    </linearGradient>
    <linearGradient
       inkscape:collect="always"
       xlink:href="#linearGradient11120"
       id="linearGradient11122"
       x1="97.61235"
       y1="44.606396"
       x2="97.61235"
       y2="36.385414"
       gradientUnits="userSpaceOnUse"
       gradientTransform="translate(7.7582324e-6,1.7963868e-6)" />
    <filter
       inkscape:collect="always"
       style="color-interpolation-filters:sRGB"
       id="filter11554"
       x="-0.076406829"
       width="1.1528137"
       y="-0.9648239"
       height="2.9296477">
      <feGaussianBlur
         inkscape:collect="always"
         stdDeviation="3.8747281"
         id="feGaussianBlur11556" />
    </filter>
    <linearGradient
       inkscape:collect="always"
       xlink:href="#linearGradient11360"
       id="linearGradient11558"
       gradientUnits="userSpaceOnUse"
       x1="98.273811"
       y1="72.576637"
       x2="98.273811"
       y2="86.695183"
       gradientTransform="translate(-3.5591191e-7,0.21305899)" />
    <radialGradient
       inkscape:collect="always"
       xlink:href="#linearGradient11061"
       id="radialGradient11560"
       gradientUnits="userSpaceOnUse"
       gradientTransform="matrix(1,0,0,0.33333335,-1.4749978,39.402081)"
       cx="99.124252"
       cy="118.40625"
       fx="99.124252"
       fy="118.40625"
       r="61.515625" />
    <clipPath
       clipPathUnits="userSpaceOnUse"
       id="clipPath11717">
      <rect
         style="opacity:0.37900002;fill:#ff0000;fill-opacity:1;fill-rule:nonzero;stroke:none;stroke-width:2.32833338;stroke-linejoin:round;stroke-miterlimit:4;stroke-dasharray:none;stroke-opacity:1;paint-order:stroke fill markers"
         id="rect11719"
         width="165.09999"
         height="82.549995"
         x="16.404167"
         y="18.129168"
         rx="9.0999994"
         ry="8.315484" />
    </clipPath>
    <clipPath
       clipPathUnits="userSpaceOnUse"
       id="clipPath11721">
      <rect
         style="opacity:0.37900002;fill:#ff0000;fill-opacity:1;fill-rule:nonzero;stroke:none;stroke-width:2.32833338;stroke-linejoin:round;stroke-miterlimit:4;stroke-dasharray:none;stroke-opacity:1;paint-order:stroke fill markers"
         id="rect11723"
         width="165.09999"
         height="82.549995"
         x="16.404167"
         y="18.129168"
         rx="9.0999994"
         ry="8.315484" />
    </clipPath>
    <clipPath
       clipPathUnits="userSpaceOnUse"
       id="clipPath11725">
      <rect
         style="opacity:0.37900002;fill:#ff0000;fill-opacity:1;fill-rule:nonzero;stroke:none;stroke-width:2.32833338;stroke-linejoin:round;stroke-miterlimit:4;stroke-dasharray:none;stroke-opacity:1;paint-order:stroke fill markers"
         id="rect11727"
         width="165.09999"
         height="82.549995"
         x="16.404167"
         y="18.129168"
         rx="9.0999994"
         ry="8.315484" />
    </clipPath>
    <clipPath
       clipPathUnits="userSpaceOnUse"
       id="clipPath11729">
      <rect
         style="opacity:0.37900002;fill:#ff0000;fill-opacity:1;fill-rule:nonzero;stroke:none;stroke-width:2.32833338;stroke-linejoin:round;stroke-miterlimit:4;stroke-dasharray:none;stroke-opacity:1;paint-order:stroke fill markers"
         id="rect11731"
         width="165.09999"
         height="82.549995"
         x="16.404167"
         y="18.129168"
         rx="9.0999994"
         ry="8.315484" />
    </clipPath>
    <clipPath
       clipPathUnits="userSpaceOnUse"
       id="clipPath11733">
      <rect
         style="opacity:0.37900002;fill:#ff0000;fill-opacity:1;fill-rule:nonzero;stroke:none;stroke-width:2.32833338;stroke-linejoin:round;stroke-miterlimit:4;stroke-dasharray:none;stroke-opacity:1;paint-order:stroke fill markers"
         id="rect11735"
         width="165.09999"
         height="82.549995"
         x="16.404167"
         y="18.129168"
         rx="9.0999994"
         ry="8.315484" />
    </clipPath>
    <clipPath
       clipPathUnits="userSpaceOnUse"
       id="clipPath11737">
      <rect
         style="opacity:0.37900002;fill:#ff0000;fill-opacity:1;fill-rule:nonzero;stroke:none;stroke-width:2.32833338;stroke-linejoin:round;stroke-miterlimit:4;stroke-dasharray:none;stroke-opacity:1;paint-order:stroke fill markers"
         id="rect11739"
         width="165.09999"
         height="82.549995"
         x="16.404167"
         y="18.129168"
         rx="9.0999994"
         ry="8.315484" />
    </clipPath>
    <clipPath
       clipPathUnits="userSpaceOnUse"
       id="clipPath11741">
      <rect
         style="opacity:0.37900002;fill:#ff0000;fill-opacity:1;fill-rule:nonzero;stroke:none;stroke-width:2.32833338;stroke-linejoin:round;stroke-miterlimit:4;stroke-dasharray:none;stroke-opacity:1;paint-order:stroke fill markers"
         id="rect11743"
         width="165.09999"
         height="82.549995"
         x="16.404167"
         y="18.129168"
         rx="9.0999994"
         ry="8.315484" />
    </clipPath>
    <clipPath
       clipPathUnits="userSpaceOnUse"
       id="clipPath11717-8">
      <rect
         style="opacity:0.37900002;fill:#ff0000;fill-opacity:1;fill-rule:nonzero;stroke:none;stroke-width:2.32833338;stroke-linejoin:round;stroke-miterlimit:4;stroke-dasharray:none;stroke-opacity:1;paint-order:stroke fill markers"
         id="rect11719-9"
         width="165.09999"
         height="82.549995"
         x="16.404167"
         y="18.129168"
         rx="9.0999994"
         ry="8.315484" />
    </clipPath>
    <clipPath
       clipPathUnits="userSpaceOnUse"
       id="clipPath11717-9">
      <rect
         style="opacity:0.37900002;fill:#ff0000;fill-opacity:1;fill-rule:nonzero;stroke:none;stroke-width:2.32833338;stroke-linejoin:round;stroke-miterlimit:4;stroke-dasharray:none;stroke-opacity:1;paint-order:stroke fill markers"
         id="rect11719-8"
         width="165.09999"
         height="82.549995"
         x="16.404167"
         y="18.129168"
         rx="9.0999994"
         ry="8.315484" />
    </clipPath>
  </defs>
  <sodipodi:namedview
     id="base"
     pagecolor="#ffffff"
     bordercolor="#666666"
     borderopacity="1.0"
     inkscape:pageopacity="0.0"
     inkscape:pageshadow="2"
     inkscape:zoom="1"
     inkscape:cx="190.58615"
     inkscape:cy="94.678564"
     inkscape:document-units="px"
     inkscape:current-layer="text11564-9"
     showgrid="false"
     inkscape:snap-nodes="true"
     inkscape:snap-bbox="true"
     inkscape:bbox-paths="true"
     inkscape:bbox-nodes="true"
     inkscape:snap-bbox-edge-midpoints="true"
     inkscape:snap-bbox-midpoints="true"
     inkscape:window-width="1855"
     inkscape:window-height="1056"
     inkscape:window-x="65"
     inkscape:window-y="24"
     inkscape:window-maximized="1"
     fit-margin-top="0"
     fit-margin-left="0"
     fit-margin-right="0"
     fit-margin-bottom="0" />
  <metadata
     id="metadata7493">
    <rdf:RDF>
      <cc:Work
         rdf:about="">
        <dc:format>image/svg+xml</dc:format>
        <dc:type
           rdf:resource="http://purl.org/dc/dcmitype/StillImage" />
        <dc:title />
      </cc:Work>
    </rdf:RDF>
  </metadata>
  <g
     inkscape:label="Layer 1"
     inkscape:groupmode="layer"
     id="layer1"
     transform="translate(-28.1203,-34.910414)">
    <rect
       style="opacity:0.84200003;fill:#006100;fill-opacity:1;stroke:#0f2904;stroke-width:2.95000005;stroke-linejoin:round;stroke-miterlimit:4;stroke-dasharray:none;stroke-opacity:1;paint-order:stroke fill markers"
       id="rect9548"
       width="123.03125"
       height="41.010418"
       x="36.096725"
       y="36.385414"
       ry="8.3154755"
       rx="9"
       clip-path="url(#clipPath11741)" />
    <rect
       style="opacity:0.51099997;fill:#005e1c;fill-opacity:1;fill-rule:nonzero;stroke:none;stroke-width:2.95000005;stroke-linejoin:round;stroke-miterlimit:4;stroke-dasharray:none;stroke-opacity:1;paint-order:stroke fill markers"
       id="rect9548-5"
       width="123.03125"
       height="41.010418"
       x="36.096725"
       y="36.385414"
       ry="8.3154755"
       rx="9.1000004"
       clip-path="url(#clipPath11737)" />
    <rect
       style="opacity:0.71300001;fill:url(#linearGradient11122);fill-opacity:1;fill-rule:nonzero;stroke:none;stroke-width:2.91744614;stroke-linejoin:round;stroke-miterlimit:4;stroke-dasharray:none;stroke-opacity:1;paint-order:stroke fill markers"
       id="rect11111"
       width="123.03126"
       height="16.441963"
       x="36.096725"
       y="36.385414"
       rx="7.5827613"
       ry="5.8342509"
       clip-path="url(#clipPath11733)" />
    <rect
       rx="9.1000004"
       ry="8.3154755"
       y="54.30238"
       x="34.621727"
       height="24.568451"
       width="123.03126"
       id="rect11332"
       style="opacity:0.51099997;fill:url(#radialGradient11560);fill-opacity:1;fill-rule:nonzero;stroke:none;stroke-width:2.95000005;stroke-linejoin:round;stroke-miterlimit:4;stroke-dasharray:none;stroke-opacity:1;paint-order:stroke fill markers"
       clip-path="url(#clipPath11729)" />
    <rect
       rx="9.0438194"
       ry="8.4369364"
       y="36.085907"
       x="35.797215"
       height="41.609436"
       width="123.63027"
       id="rect11336"
       style="opacity:1;fill:none;fill-opacity:1;stroke:#0f4f04;stroke-width:2.35097861;stroke-linejoin:round;stroke-miterlimit:4;stroke-dasharray:none;stroke-opacity:1;paint-order:stroke fill markers"
       clip-path="url(#clipPath11725)" />
    <rect
       style="opacity:0.37900002;fill:url(#linearGradient11558);fill-opacity:1;fill-rule:nonzero;stroke:none;stroke-width:2.32833338;stroke-linejoin:round;stroke-miterlimit:4;stroke-dasharray:none;stroke-opacity:1;paint-order:stroke fill markers;filter:url(#filter11554)"
       id="rect11338"
       width="121.70833"
       height="9.6383886"
       x="37.419647"
       y="67.970497"
       rx="9.0999994"
       ry="8.315484"
       clip-path="url(#clipPath11721)" />
    <text
       transform="translate(36.424081,-39.965963)"
       xml:space="preserve"
       style="font-style:normal;font-variant:normal;font-weight:bold;font-stretch:normal;font-size:28.22222328px;line-height:2.25;font-family:Comfortaa;-inkscape-font-specification:'Comfortaa Bold';text-align:center;letter-spacing:0px;word-spacing:0px;baseline-shift:baseline;text-anchor:middle;fill:#ffffff;fill-opacity:1;stroke:none;stroke-width:0.26458332"
       x="98.23764"
       y="65.423538"
       id="text11564"
       clip-path="url(#clipPath11717-8)"><tspan
         sodipodi:role="line"
         id="tspan11562"
         x="98.23764"
         y="65.423538"
         style="font-style:normal;font-variant:normal;font-weight:bold;font-stretch:normal;font-size:22.93055534px;line-height:2.25;font-family:Comfortaa;-inkscape-font-specification:'Comfortaa Bold';text-align:center;baseline-shift:baseline;text-anchor:middle;fill:#ffffff;fill-opacity:1;stroke-width:0.26458332">Settings</tspan></text>
  </g>
  <g
     inkscape:groupmode="layer"
     id="layer2"
     inkscape:label="Layer 2"
     transform="translate(-28.1203,-34.910414)">
    <g
       aria-label="Play"
       transform="translate(-0.63648513,-2.2628414)"
       clip-path="url(#clipPath11717-9)"
       style="font-style:normal;font-variant:normal;font-weight:bold;font-stretch:normal;font-size:28.22222328px;line-height:2.25;font-family:Comfortaa;-inkscape-font-specification:'Comfortaa Bold';text-align:center;letter-spacing:0px;word-spacing:0px;baseline-shift:baseline;text-anchor:middle;fill:#ffffff;fill-opacity:1;stroke:none;stroke-width:0.26458332"
       id="text11564-9">
      <path
         d="m 79.606564,49.882713 v 7.121012 h 2.261705 q 0.727777,0 1.365981,-0.279914 0.6494,-0.279914 1.130852,-0.761366 0.492649,-0.481452 0.772563,-1.130853 0.29111,-0.6494 0.29111,-1.388373 0,-0.75017 -0.29111,-1.39957 -0.279914,-0.649401 -0.772563,-1.130853 -0.481452,-0.481452 -1.130852,-0.750169 -0.649401,-0.279914 -1.365981,-0.279914 z m -2.373671,14.35399 V 48.695877 q 0,-0.246324 0.08957,-0.459059 0.08957,-0.223931 0.246324,-0.380683 0.167949,-0.167948 0.380683,-0.257521 0.212735,-0.08957 0.470256,-0.08957 h 3.44854 q 0.806153,0 1.556322,0.212734 0.761366,0.212735 1.421963,0.604615 0.660597,0.391879 1.209229,0.940511 0.548631,0.537435 0.929314,1.198032 0.39188,0.660597 0.604615,1.421963 0.223931,0.750169 0.223931,1.556322 0,2.44085 -1.75786,4.19871 -1.735467,1.735467 -4.187514,1.735467 h -2.261705 v 4.859307 q 0,0.492648 -0.347093,0.839742 -0.347094,0.347093 -0.839742,0.347093 -0.492649,0 -0.839742,-0.347093 -0.347094,-0.347094 -0.347094,-0.839742 z"
         style="font-style:normal;font-variant:normal;font-weight:bold;font-stretch:normal;font-size:22.93055534px;line-height:2.25;font-family:Comfortaa;-inkscape-font-specification:'Comfortaa Bold';text-align:center;text-anchor:middle;fill:#ffffff;fill-opacity:1;stroke-width:0.26458332"
         id="path1104" />
      <path
         d="M 89.280392,64.259096 V 48.684681 q 0,-0.492649 0.324701,-0.828546 0.335896,-0.347093 0.839742,-0.347093 0.503845,0 0.828545,0.347093 0.335897,0.335897 0.335897,0.828546 v 14.398776 h 0.537435 q 0.481452,0 0.817349,0.347093 0.347093,0.335897 0.347093,0.828546 0,0.481452 -0.347093,0.828545 -0.335897,0.335897 -0.817349,0.335897 h -1.713074 q -0.481452,0 -0.817349,-0.335897 -0.335897,-0.347093 -0.335897,-0.828545 z"
         style="font-style:normal;font-variant:normal;font-weight:bold;font-stretch:normal;font-size:22.93055534px;line-height:2.25;font-family:Comfortaa;-inkscape-font-specification:'Comfortaa Bold';text-align:center;text-anchor:middle;fill:#ffffff;fill-opacity:1;stroke-width:0.26458332"
         id="path1106" />
      <path
         d="m 101.03678,55.223472 q -0.82854,0 -1.545124,0.313504 -0.71658,0.313503 -1.242818,0.850938 -0.526239,0.526238 -0.839742,1.242818 -0.302307,0.71658 -0.302307,1.522732 0,0.806153 0.302307,1.522733 0.313503,0.71658 0.839742,1.254014 0.526238,0.526239 1.242818,0.839742 0.716584,0.313504 1.545124,0.313504 0.81735,0 1.53393,-0.313504 0.71658,-0.313503 1.24282,-0.850938 0.53743,-0.537435 0.83974,-1.242818 0.3135,-0.71658 0.3135,-1.522733 0,-0.806152 -0.3135,-1.511535 -0.30231,-0.71658 -0.83974,-1.254015 -0.52624,-0.537435 -1.24282,-0.850938 -0.71658,-0.313504 -1.53393,-0.313504 z m 3.92999,9.035624 v -0.223931 q -0.83974,0.671793 -1.82504,1.030083 -0.98529,0.35829 -2.10495,0.35829 -2.597601,0 -4.433837,-1.836236 -1.836235,-1.836236 -1.836235,-4.433838 0,-2.597601 1.836235,-4.433837 1.836236,-1.836236 4.433837,-1.836236 2.57521,0 4.43384,1.836236 1.83623,1.836236 1.83623,4.433837 v 5.105632 q 0,0.481452 -0.34709,0.828545 -0.3359,0.335897 -0.81735,0.335897 -0.49265,0 -0.83974,-0.335897 -0.3359,-0.347093 -0.3359,-0.828545 z"
         style="font-style:normal;font-variant:normal;font-weight:bold;font-stretch:normal;font-size:22.93055534px;line-height:2.25;font-family:Comfortaa;-inkscape-font-specification:'Comfortaa Bold';text-align:center;text-anchor:middle;fill:#ffffff;fill-opacity:1;stroke-width:0.26458332"
         id="path1108" />
      <path
         d="m 112.54685,64.259096 -4.03077,-9.685025 q -0.11196,-0.257521 -0.11196,-0.526238 0,-0.235128 0.0896,-0.447862 0.0896,-0.212735 0.24632,-0.369487 0.15676,-0.167948 0.36949,-0.257521 0.21274,-0.08957 0.45906,-0.08957 0.34709,0 0.6494,0.201538 0.30231,0.190341 0.45906,0.571024 l 3.14623,7.512892 3.14624,-7.535285 q 0.13436,-0.335897 0.38068,-0.537435 0.25752,-0.212734 0.71658,-0.212734 0.24632,0 0.45906,0.08957 0.21273,0.08957 0.36948,0.257521 0.15676,0.156752 0.24633,0.369487 0.10077,0.212734 0.10077,0.447862 0,0.246324 -0.12316,0.526238 l -6.43803,15.440057 q -0.14555,0.347093 -0.44786,0.559828 -0.30231,0.223931 -0.6606,0.223931 -0.50384,0 -0.83974,-0.335897 -0.3247,-0.335896 -0.3247,-0.839742 0,-0.268717 0.11197,-0.515041 z"
         style="font-style:normal;font-variant:normal;font-weight:bold;font-stretch:normal;font-size:22.93055534px;line-height:2.25;font-family:Comfortaa;-inkscape-font-specification:'Comfortaa Bold';text-align:center;text-anchor:middle;fill:#ffffff;fill-opacity:1;stroke-width:0.26458332"
         id="path1110" />
    </g>
  </g>
</svg>
