<?xml version="1.0" encoding="UTF-8" standalone="no"?>
<!-- Created with Inkscape (http://www.inkscape.org/) -->

<svg
   xmlns:dc="http://purl.org/dc/elements/1.1/"
   xmlns:cc="http://creativecommons.org/ns#"
   xmlns:rdf="http://www.w3.org/1999/02/22-rdf-syntax-ns#"
   xmlns:svg="http://www.w3.org/2000/svg"
   xmlns="http://www.w3.org/2000/svg"
   xmlns:xlink="http://www.w3.org/1999/xlink"
   xmlns:sodipodi="http://sodipodi.sourceforge.net/DTD/sodipodi-0.dtd"
   xmlns:inkscape="http://www.inkscape.org/namespaces/inkscape"
   width="140.30702mm"
   height="51.997818mm"
   viewBox="0 0 140.30702 51.997818"
   version="1.1"
   id="svg7496"
   sodipodi:docname="button_settings.svg"
   inkscape:version="0.92.4 (unknown)">
  <defs
     id="defs7490">
    <linearGradient
       id="linearGradient11360"
       inkscape:collect="always">
      <stop
         id="stop11356"
         offset="0"
         style="stop-color:#ffffff;stop-opacity:0.529" />
      <stop
         id="stop11358"
         offset="1"
         style="stop-color:#ff0032;stop-opacity:0.13725491" />
    </linearGradient>
    <linearGradient
       inkscape:collect="always"
       id="linearGradient11120">
      <stop
         style="stop-color:#ffffff;stop-opacity:0.143"
         offset="0"
         id="stop11116" />
      <stop
         style="stop-color:#ffffff;stop-opacity:0.75"
         offset="1"
         id="stop11118" />
    </linearGradient>
    <linearGradient
       inkscape:collect="always"
       id="linearGradient11061">
      <stop
         style="stop-color:#5bff00;stop-opacity:1"
         offset="0"
         id="stop11057" />
      <stop
         style="stop-color:#006100;stop-opacity:0;"
         offset="1"
         id="stop11059" />
    </linearGradient>
    <linearGradient
       inkscape:collect="always"
       xlink:href="#linearGradient11120"
       id="linearGradient11122"
       x1="97.61235"
       y1="44.606396"
       x2="97.61235"
       y2="36.385414"
       gradientUnits="userSpaceOnUse"
       gradientTransform="translate(7.7582324e-6,1.7963868e-6)" />
    <filter
       inkscape:collect="always"
       style="color-interpolation-filters:sRGB"
       id="filter11554"
       x="-0.076406829"
       width="1.1528137"
       y="-0.9648239"
       height="2.9296477">
      <feGaussianBlur
         inkscape:collect="always"
         stdDeviation="3.8747281"
         id="feGaussianBlur11556" />
    </filter>
    <linearGradient
       inkscape:collect="always"
       xlink:href="#linearGradient11360"
       id="linearGradient11558"
       gradientUnits="userSpaceOnUse"
       x1="98.273811"
       y1="72.576637"
       x2="98.273811"
       y2="86.695183"
       gradientTransform="translate(-3.5591191e-7,0.21305899)" />
    <radialGradient
       inkscape:collect="always"
       xlink:href="#linearGradient11061"
       id="radialGradient11560"
       gradientUnits="userSpaceOnUse"
       gradientTransform="matrix(1,0,0,0.33333335,-1.4749978,39.402081)"
       cx="99.124252"
       cy="118.40625"
       fx="99.124252"
       fy="118.40625"
       r="61.515625" />
    <clipPath
       clipPathUnits="userSpaceOnUse"
       id="clipPath11717">
      <rect
         style="opacity:0.37900002;fill:#ff0000;fill-opacity:1;fill-rule:nonzero;stroke:none;stroke-width:2.32833338;stroke-linejoin:round;stroke-miterlimit:4;stroke-dasharray:none;stroke-opacity:1;paint-order:stroke fill markers"
         id="rect11719"
         width="165.09999"
         height="82.549995"
         x="16.404167"
         y="18.129168"
         rx="9.0999994"
         ry="8.315484" />
    </clipPath>
    <clipPath
       clipPathUnits="userSpaceOnUse"
       id="clipPath11721">
      <rect
         style="opacity:0.37900002;fill:#ff0000;fill-opacity:1;fill-rule:nonzero;stroke:none;stroke-width:2.32833338;stroke-linejoin:round;stroke-miterlimit:4;stroke-dasharray:none;stroke-opacity:1;paint-order:stroke fill markers"
         id="rect11723"
         width="165.09999"
         height="82.549995"
         x="16.404167"
         y="18.129168"
         rx="9.0999994"
         ry="8.315484" />
    </clipPath>
    <clipPath
       clipPathUnits="userSpaceOnUse"
       id="clipPath11725">
      <rect
         style="opacity:0.37900002;fill:#ff0000;fill-opacity:1;fill-rule:nonzero;stroke:none;stroke-width:2.32833338;stroke-linejoin:round;stroke-miterlimit:4;stroke-dasharray:none;stroke-opacity:1;paint-order:stroke fill markers"
         id="rect11727"
         width="165.09999"
         height="82.549995"
         x="16.404167"
         y="18.129168"
         rx="9.0999994"
         ry="8.315484" />
    </clipPath>
    <clipPath
       clipPathUnits="userSpaceOnUse"
       id="clipPath11729">
      <rect
         style="opacity:0.37900002;fill:#ff0000;fill-opacity:1;fill-rule:nonzero;stroke:none;stroke-width:2.32833338;stroke-linejoin:round;stroke-miterlimit:4;stroke-dasharray:none;stroke-opacity:1;paint-order:stroke fill markers"
         id="rect11731"
         width="165.09999"
         height="82.549995"
         x="16.404167"
         y="18.129168"
         rx="9.0999994"
         ry="8.315484" />
    </clipPath>
    <clipPath
       clipPathUnits="userSpaceOnUse"
       id="clipPath11733">
      <rect
         style="opacity:0.37900002;fill:#ff0000;fill-opacity:1;fill-rule:nonzero;stroke:none;stroke-width:2.32833338;stroke-linejoin:round;stroke-miterlimit:4;stroke-dasharray:none;stroke-opacity:1;paint-order:stroke fill markers"
         id="rect11735"
         width="165.09999"
         height="82.549995"
         x="16.404167"
         y="18.129168"
         rx="9.0999994"
         ry="8.315484" />
    </clipPath>
    <clipPath
       clipPathUnits="userSpaceOnUse"
       id="clipPath11737">
      <rect
         style="opacity:0.37900002;fill:#ff0000;fill-opacity:1;fill-rule:nonzero;stroke:none;stroke-width:2.32833338;stroke-linejoin:round;stroke-miterlimit:4;stroke-dasharray:none;stroke-opacity:1;paint-order:stroke fill markers"
         id="rect11739"
         width="165.09999"
         height="82.549995"
         x="16.404167"
         y="18.129168"
         rx="9.0999994"
         ry="8.315484" />
    </clipPath>
    <clipPath
       clipPathUnits="userSpaceOnUse"
       id="clipPath11741">
      <rect
         style="opacity:0.37900002;fill:#ff0000;fill-opacity:1;fill-rule:nonzero;stroke:none;stroke-width:2.32833338;stroke-linejoin:round;stroke-miterlimit:4;stroke-dasharray:none;stroke-opacity:1;paint-order:stroke fill markers"
         id="rect11743"
         width="165.09999"
         height="82.549995"
         x="16.404167"
         y="18.129168"
         rx="9.0999994"
         ry="8.315484" />
    </clipPath>
  </defs>
  <sodipodi:namedview
     id="base"
     pagecolor="#ffffff"
     bordercolor="#666666"
     borderopacity="1.0"
     inkscape:pageopacity="0.0"
     inkscape:pageshadow="2"
     inkscape:zoom="2"
     inkscape:cx="160.46659"
     inkscape:cy="83.66288"
     inkscape:document-units="mm"
     inkscape:current-layer="text11564"
     showgrid="false"
     inkscape:snap-nodes="true"
     inkscape:snap-bbox="true"
     inkscape:bbox-paths="true"
     inkscape:bbox-nodes="true"
     inkscape:snap-bbox-edge-midpoints="true"
     inkscape:snap-bbox-midpoints="true"
     inkscape:window-width="1855"
     inkscape:window-height="1056"
     inkscape:window-x="65"
     inkscape:window-y="24"
     inkscape:window-maximized="1"
     fit-margin-top="0"
     fit-margin-left="0"
     fit-margin-right="0"
     fit-margin-bottom="0" />
  <metadata
     id="metadata7493">
    <rdf:RDF>
      <cc:Work
         rdf:about="">
        <dc:format>image/svg+xml</dc:format>
        <dc:type
           rdf:resource="http://purl.org/dc/dcmitype/StillImage" />
        <dc:title />
      </cc:Work>
    </rdf:RDF>
  </metadata>
  <g
     inkscape:label="Layer 1"
     inkscape:groupmode="layer"
     id="layer1"
     transform="translate(-28.1203,-34.910414)">
    <path
       style="opacity:0.84200003;fill:#006100;fill-opacity:1;stroke:#0f2904;stroke-width:2.95000005;stroke-linejoin:round;stroke-miterlimit:4;stroke-dasharray:none;stroke-opacity:1;paint-order:stroke fill markers"
       clip-path="url(#clipPath11741)"
       d="M 45.096725,36.385414 H 150.12798 c 4.986,0 9,3.708702 9,8.315476 v 24.379467 c 0,4.606773 -4.014,8.315475 -9,8.315475 H 45.096725 c -4.986,0 -9,-3.708702 -9,-8.315475 V 44.70089 c 0,-4.606774 4.014,-8.315476 9,-8.315476 z"
       id="rect9548" />
    <path
       style="opacity:0.51099997;fill:#005e1c;fill-opacity:1;fill-rule:nonzero;stroke:none;stroke-width:2.95000005;stroke-linejoin:round;stroke-miterlimit:4;stroke-dasharray:none;stroke-opacity:1;paint-order:stroke fill markers"
       clip-path="url(#clipPath11737)"
       d="M 45.196726,36.385414 H 150.02798 c 5.0414,0 9.1,3.708702 9.1,8.315476 v 24.379467 c 0,4.606773 -4.0586,8.315475 -9.1,8.315475 H 45.196726 c -5.0414,0 -9.100001,-3.708702 -9.100001,-8.315475 V 44.70089 c 0,-4.606774 4.058601,-8.315476 9.100001,-8.315476 z"
       id="rect9548-5" />
    <path
       style="opacity:0.71300001;fill:url(#linearGradient11122);fill-opacity:1;fill-rule:nonzero;stroke:none;stroke-width:2.91744614;stroke-linejoin:round;stroke-miterlimit:4;stroke-dasharray:none;stroke-opacity:1;paint-order:stroke fill markers"
       clip-path="url(#clipPath11733)"
       d="M 43.679487,36.385414 H 151.54522 c 4.20085,0 7.58276,2.602076 7.58276,5.834251 v 4.773461 c 0,3.232175 -3.38191,5.834251 -7.58276,5.834251 H 43.679487 c -4.20085,0 -7.582762,-2.602076 -7.582762,-5.834251 v -4.773461 c 0,-3.232175 3.381912,-5.834251 7.582762,-5.834251 z"
       id="rect11111" />
    <path
       style="opacity:0.51099997;fill:url(#radialGradient11560);fill-opacity:1;fill-rule:nonzero;stroke:none;stroke-width:2.95000005;stroke-linejoin:round;stroke-miterlimit:4;stroke-dasharray:none;stroke-opacity:1;paint-order:stroke fill markers"
       clip-path="url(#clipPath11729)"
       d="M 43.721727,54.30238 H 148.55298 c 5.0414,0 9.1,3.708702 9.1,8.315475 v 7.9375 c 0,4.606773 -4.0586,8.315476 -9.1,8.315476 H 43.721727 c -5.0414,0 -9.1,-3.708703 -9.1,-8.315476 v -7.9375 c 0,-4.606773 4.0586,-8.315475 9.1,-8.315475 z"
       id="rect11332" />
    <path
       style="opacity:1;fill:none;fill-opacity:1;stroke:#0f4f04;stroke-width:2.35097861;stroke-linejoin:round;stroke-miterlimit:4;stroke-dasharray:none;stroke-opacity:1;paint-order:stroke fill markers"
       clip-path="url(#clipPath11725)"
       d="M 44.841034,36.085907 H 150.38367 c 5.01027,0 9.04382,3.762874 9.04382,8.436936 v 24.735564 c 0,4.674062 -4.03355,8.436936 -9.04382,8.436936 H 44.841034 c -5.010276,0 -9.043819,-3.762874 -9.043819,-8.436936 V 44.522843 c 0,-4.674062 4.033543,-8.436936 9.043819,-8.436936 z"
       id="rect11336" />
    <rect
       style="opacity:0.37900002;fill:url(#linearGradient11558);fill-opacity:1;fill-rule:nonzero;stroke:none;stroke-width:2.32833338;stroke-linejoin:round;stroke-miterlimit:4;stroke-dasharray:none;stroke-opacity:1;paint-order:stroke fill markers;filter:url(#filter11554)"
       id="rect11338"
       width="121.70833"
       height="9.6383886"
       x="37.419647"
       y="67.970497"
       rx="9.0999994"
       ry="8.315484"
       clip-path="url(#clipPath11721)" />
    <g
       aria-label="Settings"
       clip-path="url(#clipPath11717)"
       style="font-style:normal;font-variant:normal;font-weight:bold;font-stretch:normal;font-size:28.22222328px;line-height:2.25;font-family:Comfortaa;-inkscape-font-specification:'Comfortaa Bold';text-align:center;letter-spacing:0px;word-spacing:0px;baseline-shift:baseline;text-anchor:middle;fill:#ffffff;fill-opacity:1;stroke:none;stroke-width:0.26458332"
       id="text11564">
      <path
         d="m 55.231653,62.937902 q -0.235128,-0.302307 -0.235128,-0.71658 0,-0.246324 0.08957,-0.459059 0.08957,-0.223931 0.246325,-0.380683 0.167948,-0.167948 0.380683,-0.257521 0.212734,-0.08957 0.470255,-0.08957 0.660597,0 0.996494,0.548631 0.470256,0.727776 1.175639,1.097263 0.705383,0.369486 1.522732,0.369486 0.638204,0 1.198032,-0.246324 0.571025,-0.257521 0.985297,-0.68299 0.42547,-0.425469 0.671794,-0.996494 0.246324,-0.582221 0.246324,-1.231622 0,-0.61581 -0.235128,-1.153245 -0.223931,-0.548632 -0.61581,-0.951708 -0.39188,-0.414273 -0.918118,-0.671793 -0.515042,-0.257521 -1.097263,-0.313504 -0.895725,-0.07838 -1.668288,-0.470256 -0.772562,-0.391879 -1.354783,-1.00769 -0.582222,-0.627007 -0.918118,-1.421963 -0.324701,-0.806153 -0.324701,-1.701877 0,-1.097263 0.414273,-1.981792 0.414273,-0.895724 1.220425,-1.589911 h -0.0112 q 1.287604,-1.119656 3.023071,-1.119656 0.559828,0 1.119656,0.145555 0.559828,0.134359 1.07487,0.425469 0.526238,0.279914 0.9741,0.705384 0.459059,0.425469 0.817349,0.996494 0.167949,0.29111 0.167949,0.638204 0,0.25752 -0.08957,0.470255 -0.08957,0.212735 -0.257521,0.380683 -0.156752,0.156752 -0.380683,0.246324 -0.212734,0.08957 -0.459059,0.08957 -0.223931,0 -0.403076,-0.06718 Q 62.8901,51.472624 62.744544,51.349462 62.610186,51.2263 62.475827,51.069548 62.352665,50.9016 62.20711,50.688865 q -0.268718,-0.39188 -0.738973,-0.582221 -0.459059,-0.201538 -0.996494,-0.201538 -0.42547,0 -0.828546,0.179145 -0.403076,0.167948 -0.71658,0.470255 -0.313503,0.302307 -0.515041,0.71658 -0.190342,0.414273 -0.190342,0.895725 0,0.436666 0.156752,0.828545 0.167948,0.39188 0.447862,0.705384 0.279914,0.302307 0.649401,0.503845 0.380683,0.190341 0.817349,0.223931 1.04128,0.07838 1.959398,0.537435 0.918118,0.459059 1.601108,1.198032 0.694187,0.727776 1.097263,1.679484 0.403076,0.951708 0.403076,2.004184 0,2.619995 -1.937005,4.254693 h 0.0112 q -1.556322,1.321194 -3.538113,1.321194 -0.660597,0 -1.321195,-0.156752 Q 57.90763,65.098838 57.29182,64.785334 56.687205,64.471831 56.14977,64.001575 55.623532,63.53132 55.231653,62.937902 Z"
         style="font-style:normal;font-variant:normal;font-weight:bold;font-stretch:normal;font-size:22.93055534px;line-height:2.25;font-family:Comfortaa;-inkscape-font-specification:'Comfortaa Bold';text-align:center;text-anchor:middle;fill:#ffffff;fill-opacity:1;stroke-width:0.26458332"
         id="path1572" />
      <path
         d="m 76.975373,57.989022 q -0.190342,-0.615811 -0.571025,-1.119656 -0.369487,-0.515042 -0.873332,-0.873332 -0.492648,-0.369486 -1.097263,-0.571024 -0.593417,-0.201538 -1.231621,-0.201538 -0.638204,0 -1.242818,0.201538 -0.604615,0.201538 -1.10846,0.571024 -0.503845,0.35829 -0.873332,0.873332 -0.369486,0.503845 -0.548631,1.119656 z m -0.503846,3.9076 q 0.503846,0 0.828546,0.335897 0.335897,0.3247 0.335897,0.828545 0,0.492649 -0.335897,0.839742 -1.735467,1.522732 -4.097941,1.522732 -2.597602,0 -4.433838,-1.836236 -1.836236,-1.836236 -1.836236,-4.433838 0,-2.597601 1.836236,-4.433837 1.836236,-1.836236 4.433838,-1.836236 2.575209,0 4.433838,1.836236 0.918118,0.906921 1.377176,2.026577 0.459059,1.108459 0.459059,2.40726 0,0.503846 -0.347093,0.839742 -0.335897,0.324701 -0.828545,0.324701 h -8.867676 q 0.190341,0.615811 0.559828,1.130852 0.369486,0.503846 0.862135,0.873332 0.503845,0.35829 1.097263,0.559828 0.604614,0.201538 1.254015,0.201538 0.738973,0 1.354784,-0.223931 0.61581,-0.223931 1.142049,-0.671794 0.335896,-0.279914 0.772562,-0.29111 z"
         style="font-style:normal;font-variant:normal;font-weight:bold;font-stretch:normal;font-size:22.93055534px;line-height:2.25;font-family:Comfortaa;-inkscape-font-specification:'Comfortaa Bold';text-align:center;text-anchor:middle;fill:#ffffff;fill-opacity:1;stroke-width:0.26458332"
         id="path1574" />
      <path
         d="m 81.37562,52.883391 h 0.526238 v -4.209907 q 0,-0.481452 0.335897,-0.817349 0.347094,-0.347093 0.839742,-0.347093 0.481452,0 0.817349,0.347093 0.347093,0.335897 0.347093,0.817349 v 4.209907 h 1.399571 q 0.481452,0 0.817348,0.347093 0.335897,0.335897 0.335897,0.817349 0,0.492649 -0.335897,0.839742 -0.335896,0.335897 -0.817348,0.335897 h -1.399571 v 5.63187 q 0,2.228115 2.239313,2.228115 0.481452,0 0.817348,0.347093 0.335897,0.335897 0.335897,0.817349 0,0.492649 -0.335897,0.839742 -0.335896,0.335897 -0.817348,0.335897 -4.579394,0 -4.579394,-4.568196 v -5.63187 H 81.37562 q -0.470255,0 -0.817349,-0.335897 -0.335897,-0.347093 -0.335897,-0.839742 0,-0.481452 0.335897,-0.817349 0.347094,-0.347093 0.817349,-0.347093 z"
         style="font-style:normal;font-variant:normal;font-weight:bold;font-stretch:normal;font-size:22.93055534px;line-height:2.25;font-family:Comfortaa;-inkscape-font-specification:'Comfortaa Bold';text-align:center;text-anchor:middle;fill:#ffffff;fill-opacity:1;stroke-width:0.26458332"
         id="path1576" />
      <path
         d="m 90.332869,52.883391 h 0.526238 v -4.209907 q 0,-0.481452 0.335897,-0.817349 0.347093,-0.347093 0.839742,-0.347093 0.481452,0 0.817349,0.347093 0.347093,0.335897 0.347093,0.817349 v 4.209907 h 1.39957 q 0.481452,0 0.817349,0.347093 0.335897,0.335897 0.335897,0.817349 0,0.492649 -0.335897,0.839742 -0.335897,0.335897 -0.817349,0.335897 h -1.39957 v 5.63187 q 0,2.228115 2.239312,2.228115 0.481452,0 0.817349,0.347093 0.335897,0.335897 0.335897,0.817349 0,0.492649 -0.335897,0.839742 -0.335897,0.335897 -0.817349,0.335897 -4.579393,0 -4.579393,-4.568196 v -5.63187 h -0.526238 q -0.470256,0 -0.817349,-0.335897 -0.335897,-0.347093 -0.335897,-0.839742 0,-0.481452 0.335897,-0.817349 0.347093,-0.347093 0.817349,-0.347093 z"
         style="font-style:normal;font-variant:normal;font-weight:bold;font-stretch:normal;font-size:22.93055534px;line-height:2.25;font-family:Comfortaa;-inkscape-font-specification:'Comfortaa Bold';text-align:center;text-anchor:middle;fill:#ffffff;fill-opacity:1;stroke-width:0.26458332"
         id="path1578" />
      <path
         d="m 101.36148,50.655275 q 0,0.571025 -0.40308,0.974101 -0.40307,0.403076 -0.974096,0.403076 -0.571024,0 -0.974101,-0.403076 -0.403076,-0.403076 -0.403076,-0.974101 0,-0.571024 0.403076,-0.9741 0.403077,-0.403077 0.974101,-0.403077 0.571026,0 0.974096,0.403077 0.40308,0.403076 0.40308,0.9741 z M 98.819862,64.247899 V 54.05903 q 0,-0.492649 0.335897,-0.828546 0.347093,-0.347093 0.828545,-0.347093 0.481456,0 0.817346,0.347093 0.3471,0.335897 0.35829,0.828546 v 10.188869 q -0.0112,0.492649 -0.35829,0.839742 -0.33589,0.335897 -0.817346,0.335897 -0.481452,0 -0.828545,-0.335897 -0.335897,-0.347093 -0.335897,-0.839742 z"
         style="font-style:normal;font-variant:normal;font-weight:bold;font-stretch:normal;font-size:22.93055534px;line-height:2.25;font-family:Comfortaa;-inkscape-font-specification:'Comfortaa Bold';text-align:center;text-anchor:middle;fill:#ffffff;fill-opacity:1;stroke-width:0.26458332"
         id="path1580" />
      <path
         d="m 105.89609,54.036636 q 1.48914,-1.153245 3.50452,-1.153245 1.17564,0 2.22812,0.459059 1.06367,0.459059 1.86982,1.254014 0.80615,0.78376 1.27641,1.858629 0.47025,1.063674 0.47025,2.272902 v 5.519904 q 0,0.492649 -0.34709,0.839742 -0.3359,0.335897 -0.81735,0.335897 -0.49265,0 -0.83974,-0.335897 -0.3359,-0.347093 -0.3359,-0.839742 v -5.519904 q 0,-0.71658 -0.27991,-1.354784 -0.27991,-0.638204 -0.76137,-1.108459 -0.47025,-0.481452 -1.10846,-0.761366 -0.6382,-0.279914 -1.35478,-0.279914 -0.72778,0 -1.36598,0.279914 -0.62701,0.268717 -1.10846,0.750169 -0.48145,0.481452 -0.76137,1.119656 -0.26871,0.638204 -0.26871,1.354784 v 5.519904 q 0,0.492649 -0.3471,0.839742 -0.33589,0.335897 -0.81735,0.335897 -0.49264,0 -0.83974,-0.335897 -0.33589,-0.347093 -0.33589,-0.839742 V 54.05903 q 0,-0.481453 0.33589,-0.828546 0.3471,-0.347093 0.83974,-0.347093 0.48146,0 0.81735,0.347093 0.3471,0.347093 0.3471,0.806152 z"
         style="font-style:normal;font-variant:normal;font-weight:bold;font-stretch:normal;font-size:22.93055534px;line-height:2.25;font-family:Comfortaa;-inkscape-font-specification:'Comfortaa Bold';text-align:center;text-anchor:middle;fill:#ffffff;fill-opacity:1;stroke-width:0.26458332"
         id="path1582" />
      <path
         d="m 123.27315,55.223472 q -0.82855,0 -1.54513,0.313504 -0.71658,0.313503 -1.24282,0.850938 -0.52623,0.526238 -0.83974,1.242818 -0.30231,0.71658 -0.30231,1.522732 0,0.806153 0.30231,1.522733 0.31351,0.71658 0.83974,1.254014 0.52624,0.526239 1.24282,0.839742 0.71658,0.313504 1.54513,0.313504 0.81735,0 1.53393,-0.313504 0.71658,-0.313503 1.24281,-0.850938 0.53744,-0.537435 0.83975,-1.242818 0.3135,-0.71658 0.3135,-1.522733 0,-0.806152 -0.3135,-1.511535 -0.30231,-0.71658 -0.83975,-1.254015 -0.52623,-0.537435 -1.24281,-0.850938 -0.71658,-0.313504 -1.53393,-0.313504 z m 3.92999,8.822889 q -1.67948,1.377177 -3.92999,1.377177 -2.5976,0 -4.43384,-1.836236 -1.83624,-1.836236 -1.83624,-4.433838 0,-2.597601 1.83624,-4.433837 1.83624,-1.836236 4.43384,-1.836236 2.57521,0 4.43383,1.836236 1.83624,1.836236 1.83624,4.433837 v 6.225288 q 0,0.806152 -0.24632,1.522732 -0.24633,0.71658 -0.68299,1.309998 -0.43667,0.604614 -1.03009,1.086066 -0.59341,0.481452 -1.2876,0.806152 -0.68299,0.335897 -1.43316,0.515042 -0.75017,0.179145 -1.50034,0.179145 -0.89573,0 -1.75786,-0.235128 -0.86214,-0.223931 -1.6347,-0.671793 -0.77256,-0.447863 -1.42196,-1.10846 -0.63821,-0.660597 -1.08607,-1.477946 -0.17914,-0.257521 -0.17914,-0.627007 0,-0.503845 0.33589,-0.839742 0.3359,-0.3247 0.83975,-0.3247 0.33589,0 0.54863,0.156752 0.22393,0.156751 0.60461,0.694186 0.38068,0.537435 0.6718,0.817349 1.2764,1.276408 3.07905,1.276408 1.81384,0 3.06786,-1.254015 0.77256,-0.940511 0.77256,-1.825039 z"
         style="font-style:normal;font-variant:normal;font-weight:bold;font-stretch:normal;font-size:22.93055534px;line-height:2.25;font-family:Comfortaa;-inkscape-font-specification:'Comfortaa Bold';text-align:center;text-anchor:middle;fill:#ffffff;fill-opacity:1;stroke-width:0.26458332"
         id="path1584" />
      <path
         d="m 133.61877,59.455772 q -1.05248,-0.403077 -1.47795,-0.828546 h 0.0112 q -0.85094,-0.862135 -0.85094,-2.026577 0,-0.850939 0.44786,-1.533929 0.45906,-0.694187 1.18684,-1.175639 0.72777,-0.481452 1.6347,-0.738973 0.91811,-0.268717 1.83623,-0.268717 2.79914,0 4.80333,2.250508 0.23512,0.291111 0.23512,0.705384 0,0.503845 -0.33589,0.839742 -0.3247,0.3247 -0.82855,0.3247 -0.35829,0 -0.61581,-0.201538 -0.24632,-0.201538 -0.48145,-0.436666 -1.14205,-1.142049 -2.77675,-1.142049 -1.6123,0 -2.57521,0.985297 -0.17914,0.179145 -0.17914,0.492649 0,0.313503 0.29111,0.425469 l 5.23999,1.72427 q 1.09726,0.42547 1.47794,0.828546 h -0.0112 q 0.85094,0.862135 0.85094,2.026577 0,0.862135 -0.45906,1.545126 -0.44786,0.68299 -1.17564,1.175638 -0.72778,0.481452 -1.6347,0.738973 -0.90692,0.257521 -1.82504,0.257521 -2.82153,0 -4.80332,-2.228115 -0.24633,-0.324701 -0.24633,-0.727777 0,-0.503845 0.3247,-0.828545 0.3359,-0.335897 0.83975,-0.335897 0.36948,0 0.627,0.223931 0.25752,0.212735 0.47026,0.414273 1.14205,1.142049 2.78794,1.142049 1.60111,0 2.57521,-1.00769 0.16795,-0.190342 0.16795,-0.459059 0,-0.313504 -0.30231,-0.436666 z"
         style="font-style:normal;font-variant:normal;font-weight:bold;font-stretch:normal;font-size:22.93055534px;line-height:2.25;font-family:Comfortaa;-inkscape-font-specification:'Comfortaa Bold';text-align:center;text-anchor:middle;fill:#ffffff;fill-opacity:1;stroke-width:0.26458332"
         id="path1586" />
    </g>
  </g>
</svg>
