<?xml version="1.0" encoding="UTF-8" standalone="no"?>
<!-- Created with Inkscape (http://www.inkscape.org/) -->

<svg
   xmlns:dc="http://purl.org/dc/elements/1.1/"
   xmlns:cc="http://creativecommons.org/ns#"
   xmlns:rdf="http://www.w3.org/1999/02/22-rdf-syntax-ns#"
   xmlns:svg="http://www.w3.org/2000/svg"
   xmlns="http://www.w3.org/2000/svg"
   xmlns:xlink="http://www.w3.org/1999/xlink"
   xmlns:sodipodi="http://sodipodi.sourceforge.net/DTD/sodipodi-0.dtd"
   xmlns:inkscape="http://www.inkscape.org/namespaces/inkscape"
   width="140.30702mm"
   height="51.997818mm"
   viewBox="0 0 140.30702 51.997818"
   version="1.1"
   id="svg7496"
   sodipodi:docname="button_chapters.svg"
   inkscape:version="0.92.4 (unknown)">
  <defs
     id="defs7490">
    <linearGradient
       id="linearGradient11360"
       inkscape:collect="always">
      <stop
         id="stop11356"
         offset="0"
         style="stop-color:#ffffff;stop-opacity:0.529" />
      <stop
         id="stop11358"
         offset="1"
         style="stop-color:#ff0032;stop-opacity:0.13725491" />
    </linearGradient>
    <linearGradient
       inkscape:collect="always"
       id="linearGradient11120">
      <stop
         style="stop-color:#ffffff;stop-opacity:0.143"
         offset="0"
         id="stop11116" />
      <stop
         style="stop-color:#ffffff;stop-opacity:0.75"
         offset="1"
         id="stop11118" />
    </linearGradient>
    <linearGradient
       inkscape:collect="always"
       id="linearGradient11061">
      <stop
         style="stop-color:#5bff00;stop-opacity:1"
         offset="0"
         id="stop11057" />
      <stop
         style="stop-color:#006100;stop-opacity:0;"
         offset="1"
         id="stop11059" />
    </linearGradient>
    <linearGradient
       inkscape:collect="always"
       xlink:href="#linearGradient11120"
       id="linearGradient11122"
       x1="97.61235"
       y1="44.606396"
       x2="97.61235"
       y2="36.385414"
       gradientUnits="userSpaceOnUse"
       gradientTransform="translate(7.7582324e-6,1.7963868e-6)" />
    <filter
       inkscape:collect="always"
       style="color-interpolation-filters:sRGB"
       id="filter11554"
       x="-0.076406829"
       width="1.1528137"
       y="-0.9648239"
       height="2.9296477">
      <feGaussianBlur
         inkscape:collect="always"
         stdDeviation="3.8747281"
         id="feGaussianBlur11556" />
    </filter>
    <linearGradient
       inkscape:collect="always"
       xlink:href="#linearGradient11360"
       id="linearGradient11558"
       gradientUnits="userSpaceOnUse"
       x1="98.273811"
       y1="72.576637"
       x2="98.273811"
       y2="86.695183"
       gradientTransform="translate(-3.5591191e-7,0.21305899)" />
    <radialGradient
       inkscape:collect="always"
       xlink:href="#linearGradient11061"
       id="radialGradient11560"
       gradientUnits="userSpaceOnUse"
       gradientTransform="matrix(1,0,0,0.33333335,-1.4749978,39.402081)"
       cx="99.124252"
       cy="118.40625"
       fx="99.124252"
       fy="118.40625"
       r="61.515625" />
    <clipPath
       clipPathUnits="userSpaceOnUse"
       id="clipPath11717">
      <rect
         style="opacity:0.37900002;fill:#ff0000;fill-opacity:1;fill-rule:nonzero;stroke:none;stroke-width:2.32833338;stroke-linejoin:round;stroke-miterlimit:4;stroke-dasharray:none;stroke-opacity:1;paint-order:stroke fill markers"
         id="rect11719"
         width="165.09999"
         height="82.549995"
         x="16.404167"
         y="18.129168"
         rx="9.0999994"
         ry="8.315484" />
    </clipPath>
    <clipPath
       clipPathUnits="userSpaceOnUse"
       id="clipPath11721">
      <rect
         style="opacity:0.37900002;fill:#ff0000;fill-opacity:1;fill-rule:nonzero;stroke:none;stroke-width:2.32833338;stroke-linejoin:round;stroke-miterlimit:4;stroke-dasharray:none;stroke-opacity:1;paint-order:stroke fill markers"
         id="rect11723"
         width="165.09999"
         height="82.549995"
         x="16.404167"
         y="18.129168"
         rx="9.0999994"
         ry="8.315484" />
    </clipPath>
    <clipPath
       clipPathUnits="userSpaceOnUse"
       id="clipPath11725">
      <rect
         style="opacity:0.37900002;fill:#ff0000;fill-opacity:1;fill-rule:nonzero;stroke:none;stroke-width:2.32833338;stroke-linejoin:round;stroke-miterlimit:4;stroke-dasharray:none;stroke-opacity:1;paint-order:stroke fill markers"
         id="rect11727"
         width="165.09999"
         height="82.549995"
         x="16.404167"
         y="18.129168"
         rx="9.0999994"
         ry="8.315484" />
    </clipPath>
    <clipPath
       clipPathUnits="userSpaceOnUse"
       id="clipPath11729">
      <rect
         style="opacity:0.37900002;fill:#ff0000;fill-opacity:1;fill-rule:nonzero;stroke:none;stroke-width:2.32833338;stroke-linejoin:round;stroke-miterlimit:4;stroke-dasharray:none;stroke-opacity:1;paint-order:stroke fill markers"
         id="rect11731"
         width="165.09999"
         height="82.549995"
         x="16.404167"
         y="18.129168"
         rx="9.0999994"
         ry="8.315484" />
    </clipPath>
    <clipPath
       clipPathUnits="userSpaceOnUse"
       id="clipPath11733">
      <rect
         style="opacity:0.37900002;fill:#ff0000;fill-opacity:1;fill-rule:nonzero;stroke:none;stroke-width:2.32833338;stroke-linejoin:round;stroke-miterlimit:4;stroke-dasharray:none;stroke-opacity:1;paint-order:stroke fill markers"
         id="rect11735"
         width="165.09999"
         height="82.549995"
         x="16.404167"
         y="18.129168"
         rx="9.0999994"
         ry="8.315484" />
    </clipPath>
    <clipPath
       clipPathUnits="userSpaceOnUse"
       id="clipPath11737">
      <rect
         style="opacity:0.37900002;fill:#ff0000;fill-opacity:1;fill-rule:nonzero;stroke:none;stroke-width:2.32833338;stroke-linejoin:round;stroke-miterlimit:4;stroke-dasharray:none;stroke-opacity:1;paint-order:stroke fill markers"
         id="rect11739"
         width="165.09999"
         height="82.549995"
         x="16.404167"
         y="18.129168"
         rx="9.0999994"
         ry="8.315484" />
    </clipPath>
    <clipPath
       clipPathUnits="userSpaceOnUse"
       id="clipPath11741">
      <rect
         style="opacity:0.37900002;fill:#ff0000;fill-opacity:1;fill-rule:nonzero;stroke:none;stroke-width:2.32833338;stroke-linejoin:round;stroke-miterlimit:4;stroke-dasharray:none;stroke-opacity:1;paint-order:stroke fill markers"
         id="rect11743"
         width="165.09999"
         height="82.549995"
         x="16.404167"
         y="18.129168"
         rx="9.0999994"
         ry="8.315484" />
    </clipPath>
    <clipPath
       clipPathUnits="userSpaceOnUse"
       id="clipPath11717-8">
      <rect
         style="opacity:0.37900002;fill:#ff0000;fill-opacity:1;fill-rule:nonzero;stroke:none;stroke-width:2.32833338;stroke-linejoin:round;stroke-miterlimit:4;stroke-dasharray:none;stroke-opacity:1;paint-order:stroke fill markers"
         id="rect11719-9"
         width="165.09999"
         height="82.549995"
         x="16.404167"
         y="18.129168"
         rx="9.0999994"
         ry="8.315484" />
    </clipPath>
    <clipPath
       clipPathUnits="userSpaceOnUse"
       id="clipPath11717-9">
      <rect
         style="opacity:0.37900002;fill:#ff0000;fill-opacity:1;fill-rule:nonzero;stroke:none;stroke-width:2.32833338;stroke-linejoin:round;stroke-miterlimit:4;stroke-dasharray:none;stroke-opacity:1;paint-order:stroke fill markers"
         id="rect11719-8"
         width="165.09999"
         height="82.549995"
         x="16.404167"
         y="18.129168"
         rx="9.0999994"
         ry="8.315484" />
    </clipPath>
  </defs>
  <sodipodi:namedview
     id="base"
     pagecolor="#ffffff"
     bordercolor="#666666"
     borderopacity="1.0"
     inkscape:pageopacity="0.0"
     inkscape:pageshadow="2"
     inkscape:zoom="1"
     inkscape:cx="190.58615"
     inkscape:cy="94.678564"
     inkscape:document-units="px"
     inkscape:current-layer="layer2"
     showgrid="false"
     inkscape:snap-nodes="true"
     inkscape:snap-bbox="true"
     inkscape:bbox-paths="true"
     inkscape:bbox-nodes="true"
     inkscape:snap-bbox-edge-midpoints="true"
     inkscape:snap-bbox-midpoints="true"
     inkscape:window-width="1855"
     inkscape:window-height="1056"
     inkscape:window-x="65"
     inkscape:window-y="24"
     inkscape:window-maximized="1"
     fit-margin-top="0"
     fit-margin-left="0"
     fit-margin-right="0"
     fit-margin-bottom="0" />
  <metadata
     id="metadata7493">
    <rdf:RDF>
      <cc:Work
         rdf:about="">
        <dc:format>image/svg+xml</dc:format>
        <dc:type
           rdf:resource="http://purl.org/dc/dcmitype/StillImage" />
        <dc:title />
      </cc:Work>
    </rdf:RDF>
  </metadata>
  <g
     inkscape:label="Layer 1"
     inkscape:groupmode="layer"
     id="layer1"
     transform="translate(-28.1203,-34.910414)">
    <path
       style="opacity:0.84200003;fill:#006100;fill-opacity:1;stroke:#0f2904;stroke-width:2.95000005;stroke-linejoin:round;stroke-miterlimit:4;stroke-dasharray:none;stroke-opacity:1;paint-order:stroke fill markers"
       clip-path="url(#clipPath11741)"
       d="M 45.096725,36.385414 H 150.12798 c 4.986,0 9,3.708702 9,8.315476 v 24.379467 c 0,4.606773 -4.014,8.315475 -9,8.315475 H 45.096725 c -4.986,0 -9,-3.708702 -9,-8.315475 V 44.70089 c 0,-4.606774 4.014,-8.315476 9,-8.315476 z"
       id="rect9548" />
    <path
       style="opacity:0.51099997;fill:#005e1c;fill-opacity:1;fill-rule:nonzero;stroke:none;stroke-width:2.95000005;stroke-linejoin:round;stroke-miterlimit:4;stroke-dasharray:none;stroke-opacity:1;paint-order:stroke fill markers"
       clip-path="url(#clipPath11737)"
       d="M 45.196726,36.385414 H 150.02798 c 5.0414,0 9.1,3.708702 9.1,8.315476 v 24.379467 c 0,4.606773 -4.0586,8.315475 -9.1,8.315475 H 45.196726 c -5.0414,0 -9.100001,-3.708702 -9.100001,-8.315475 V 44.70089 c 0,-4.606774 4.058601,-8.315476 9.100001,-8.315476 z"
       id="rect9548-5" />
    <path
       style="opacity:0.71300001;fill:url(#linearGradient11122);fill-opacity:1;fill-rule:nonzero;stroke:none;stroke-width:2.91744614;stroke-linejoin:round;stroke-miterlimit:4;stroke-dasharray:none;stroke-opacity:1;paint-order:stroke fill markers"
       clip-path="url(#clipPath11733)"
       d="M 43.679487,36.385414 H 151.54522 c 4.20085,0 7.58276,2.602076 7.58276,5.834251 v 4.773461 c 0,3.232175 -3.38191,5.834251 -7.58276,5.834251 H 43.679487 c -4.20085,0 -7.582762,-2.602076 -7.582762,-5.834251 v -4.773461 c 0,-3.232175 3.381912,-5.834251 7.582762,-5.834251 z"
       id="rect11111" />
    <path
       style="opacity:0.51099997;fill:url(#radialGradient11560);fill-opacity:1;fill-rule:nonzero;stroke:none;stroke-width:2.95000005;stroke-linejoin:round;stroke-miterlimit:4;stroke-dasharray:none;stroke-opacity:1;paint-order:stroke fill markers"
       clip-path="url(#clipPath11729)"
       d="M 43.721727,54.30238 H 148.55298 c 5.0414,0 9.1,3.708702 9.1,8.315475 v 7.9375 c 0,4.606773 -4.0586,8.315476 -9.1,8.315476 H 43.721727 c -5.0414,0 -9.1,-3.708703 -9.1,-8.315476 v -7.9375 c 0,-4.606773 4.0586,-8.315475 9.1,-8.315475 z"
       id="rect11332" />
    <path
       style="opacity:1;fill:none;fill-opacity:1;stroke:#0f4f04;stroke-width:2.35097861;stroke-linejoin:round;stroke-miterlimit:4;stroke-dasharray:none;stroke-opacity:1;paint-order:stroke fill markers"
       clip-path="url(#clipPath11725)"
       d="M 44.841034,36.085907 H 150.38367 c 5.01027,0 9.04382,3.762874 9.04382,8.436936 v 24.735564 c 0,4.674062 -4.03355,8.436936 -9.04382,8.436936 H 44.841034 c -5.010276,0 -9.043819,-3.762874 -9.043819,-8.436936 V 44.522843 c 0,-4.674062 4.033543,-8.436936 9.043819,-8.436936 z"
       id="rect11336" />
    <path
       style="opacity:0.37900002;fill:url(#linearGradient11558);fill-opacity:1;fill-rule:nonzero;stroke:none;stroke-width:2.32833338;stroke-linejoin:round;stroke-miterlimit:4;stroke-dasharray:none;stroke-opacity:1;paint-order:stroke fill markers;filter:url(#filter11554)"
       clip-path="url(#clipPath11721)"
       d="M 46.519647,67.970497 H 150.02798 c 5.0414,0 9.1,2.149361 9.1,4.819194 0,2.669834 -4.0586,4.819195 -9.1,4.819195 H 46.519647 c -5.0414,0 -9.1,-2.149361 -9.1,-4.819195 0,-2.669833 4.0586,-4.819194 9.1,-4.819194 z"
       id="rect11338" />
    <text
       transform="translate(36.424081,-39.965963)"
       xml:space="preserve"
       style="font-style:normal;font-variant:normal;font-weight:bold;font-stretch:normal;font-size:28.22222328px;line-height:2.25;font-family:Comfortaa;-inkscape-font-specification:'Comfortaa Bold';text-align:center;letter-spacing:0px;word-spacing:0px;baseline-shift:baseline;text-anchor:middle;fill:#ffffff;fill-opacity:1;stroke:none;stroke-width:0.26458332"
       x="98.23764"
       y="65.423538"
       id="text11564"
       clip-path="url(#clipPath11717-8)"><tspan
         sodipodi:role="line"
         id="tspan11562"
         x="98.23764"
         y="65.423538"
         style="font-style:normal;font-variant:normal;font-weight:bold;font-stretch:normal;font-size:22.93055534px;line-height:2.25;font-family:Comfortaa;-inkscape-font-specification:'Comfortaa Bold';text-align:center;baseline-shift:baseline;text-anchor:middle;fill:#ffffff;fill-opacity:1;stroke-width:0.26458332">Settings</tspan></text>
  </g>
  <g
     inkscape:groupmode="layer"
     id="layer2"
     inkscape:label="Layer 2"
     transform="translate(-28.1203,-34.910414)">
    <g
       aria-label="Chapters"
       transform="translate(-0.63648513,-2.2628414)"
       clip-path="url(#clipPath11717-9)"
       style="font-style:normal;font-variant:normal;font-weight:bold;font-stretch:normal;font-size:28.22222328px;line-height:2.25;font-family:Comfortaa;-inkscape-font-specification:'Comfortaa Bold';text-align:center;letter-spacing:0px;word-spacing:0px;baseline-shift:baseline;text-anchor:middle;fill:#ffffff;fill-opacity:1;stroke:none;stroke-width:0.26458332"
       id="text11564-9">
      <path
         d="m 61.42335,61.392777 q 0.246325,0 0.459059,0.100769 0.212735,0.08957 0.369487,0.246324 0.167948,0.156752 0.257521,0.380683 0.100769,0.212735 0.100769,0.459059 0,0.470255 -0.369487,0.850938 -2.496833,1.992988 -5.63187,1.992988 -3.717258,0 -6.337253,-2.619995 -2.619995,-2.619995 -2.619995,-6.337253 0,-3.706061 2.619995,-6.326057 2.631192,-2.631191 6.337253,-2.631191 3.179824,0 5.743836,2.093757 0.313504,0.302307 0.313504,0.817349 0,0.25752 -0.08957,0.470255 -0.08957,0.212735 -0.257521,0.380683 -0.156752,0.156752 -0.380683,0.246324 -0.212735,0.08957 -0.459059,0.08957 -0.436666,0 -0.817349,-0.335897 -0.850938,-0.671794 -1.881022,-1.030083 -1.018887,-0.35829 -2.172133,-0.35829 -2.73196,0 -4.668965,1.937005 -1.914612,1.914611 -1.914612,4.646572 0,2.743157 1.914612,4.657769 1.925808,1.925808 4.668965,1.925808 2.340082,0 4.120335,-1.444356 0.29111,-0.201538 0.694186,-0.212734 z"
         style="font-style:normal;font-variant:normal;font-weight:bold;font-stretch:normal;font-size:22.93055534px;line-height:2.25;font-family:Comfortaa;-inkscape-font-specification:'Comfortaa Bold';text-align:center;text-anchor:middle;fill:#ffffff;fill-opacity:1;stroke-width:0.26458332"
         id="path947" />
      <path
         d="m 66.573768,64.247899 q 0,0.492649 -0.347093,0.839742 -0.335897,0.335897 -0.828545,0.335897 -0.481452,0 -0.828546,-0.335897 -0.335897,-0.347093 -0.335897,-0.839742 V 48.684681 q 0,-0.492649 0.335897,-0.828546 0.347094,-0.347093 0.828546,-0.347093 0.481452,0 0.817348,0.347093 0.347094,0.335897 0.35829,0.828546 v 5.374349 q 1.489143,-1.153246 3.504524,-1.153246 1.175639,0 2.228115,0.459059 1.063673,0.459059 1.869826,1.254015 0.806152,0.783759 1.276408,1.858629 0.470255,1.063673 0.470255,2.272901 v 5.497511 q -0.0112,0.492649 -0.35829,0.839742 -0.335897,0.335897 -0.817349,0.335897 -0.481452,0 -0.828545,-0.335897 -0.335897,-0.347093 -0.335897,-0.839742 v -5.497511 q 0,-0.71658 -0.279914,-1.354783 -0.279914,-0.638204 -0.761366,-1.10846 -0.470256,-0.481452 -1.108459,-0.761366 -0.638204,-0.279914 -1.354784,-0.279914 -0.727777,0 -1.365981,0.279914 -0.627007,0.268717 -1.108459,0.75017 -0.481452,0.481452 -0.761366,1.119656 -0.268718,0.638203 -0.268718,1.354783 z"
         style="font-style:normal;font-variant:normal;font-weight:bold;font-stretch:normal;font-size:22.93055534px;line-height:2.25;font-family:Comfortaa;-inkscape-font-specification:'Comfortaa Bold';text-align:center;text-anchor:middle;fill:#ffffff;fill-opacity:1;stroke-width:0.26458332"
         id="path949" />
      <path
         d="m 83.950831,55.223472 q -0.828546,0 -1.545126,0.313504 -0.71658,0.313503 -1.242818,0.850938 -0.526238,0.526238 -0.839742,1.242818 -0.302307,0.71658 -0.302307,1.522732 0,0.806153 0.302307,1.522733 0.313504,0.71658 0.839742,1.254014 0.526238,0.526239 1.242818,0.839742 0.71658,0.313504 1.545126,0.313504 0.817349,0 1.533928,-0.313504 0.71658,-0.313503 1.242819,-0.850938 0.537434,-0.537435 0.839742,-1.242818 0.313503,-0.71658 0.313503,-1.522733 0,-0.806152 -0.313503,-1.511535 -0.302308,-0.71658 -0.839742,-1.254015 -0.526239,-0.537435 -1.242819,-0.850938 -0.716579,-0.313504 -1.533928,-0.313504 z m 3.929992,9.035624 v -0.223931 q -0.839742,0.671793 -1.825039,1.030083 -0.985297,0.35829 -2.104953,0.35829 -2.597602,0 -4.433838,-1.836236 -1.836236,-1.836236 -1.836236,-4.433838 0,-2.597601 1.836236,-4.433837 1.836236,-1.836236 4.433838,-1.836236 2.575209,0 4.433838,1.836236 1.836235,1.836236 1.836235,4.433837 v 5.105632 q 0,0.481452 -0.347093,0.828545 -0.335897,0.335897 -0.817349,0.335897 -0.492649,0 -0.839742,-0.335897 -0.335897,-0.347093 -0.335897,-0.828545 z"
         style="font-style:normal;font-variant:normal;font-weight:bold;font-stretch:normal;font-size:22.93055534px;line-height:2.25;font-family:Comfortaa;-inkscape-font-specification:'Comfortaa Bold';text-align:center;text-anchor:middle;fill:#ffffff;fill-opacity:1;stroke-width:0.26458332"
         id="path951" />
      <path
         d="m 94.352434,59.153464 q 0,0.806153 0.302308,1.522733 0.313503,0.71658 0.839742,1.254014 0.526238,0.526239 1.242818,0.839742 0.71658,0.313504 1.545125,0.313504 0.817349,0 1.533929,-0.313504 0.716584,-0.313503 1.242814,-0.850938 0.53744,-0.537435 0.83975,-1.242818 0.3135,-0.71658 0.3135,-1.522733 0,-0.806152 -0.3135,-1.511535 -0.30231,-0.71658 -0.83975,-1.254015 -0.52623,-0.537435 -1.242814,-0.850938 -0.71658,-0.313504 -1.533929,-0.313504 -0.828545,0 -1.545125,0.313504 -0.71658,0.313503 -1.242818,0.850938 -0.526239,0.526238 -0.839742,1.242818 -0.302308,0.71658 -0.302308,1.522732 z m 3.929993,6.270074 q -2.250509,0 -3.929993,-1.377177 v 5.587084 q 0,0.503845 -0.347093,0.828545 -0.335897,0.335897 -0.828545,0.335897 -0.503846,0 -0.839742,-0.335897 -0.324701,-0.3247 -0.324701,-0.828545 V 59.153464 q 0,-2.597601 1.836236,-4.433837 1.836236,-1.836236 4.433838,-1.836236 2.575213,0 4.433833,1.836236 0.91812,0.906921 1.37718,2.026577 0.45906,1.108459 0.45906,2.40726 0,2.619996 -1.83624,4.433838 -0.94051,0.929315 -2.04897,1.388374 -1.097259,0.447862 -2.384863,0.447862 z"
         style="font-style:normal;font-variant:normal;font-weight:bold;font-stretch:normal;font-size:22.93055534px;line-height:2.25;font-family:Comfortaa;-inkscape-font-specification:'Comfortaa Bold';text-align:center;text-anchor:middle;fill:#ffffff;fill-opacity:1;stroke-width:0.26458332"
         id="path953" />
      <path
         d="m 106.45591,52.883391 h 0.52624 v -4.209907 q 0,-0.481452 0.3359,-0.817349 0.34709,-0.347093 0.83974,-0.347093 0.48145,0 0.81735,0.347093 0.34709,0.335897 0.34709,0.817349 v 4.209907 h 1.39957 q 0.48146,0 0.81735,0.347093 0.3359,0.335897 0.3359,0.817349 0,0.492649 -0.3359,0.839742 -0.33589,0.335897 -0.81735,0.335897 h -1.39957 v 5.63187 q 0,2.228115 2.23932,2.228115 0.48145,0 0.81734,0.347093 0.3359,0.335897 0.3359,0.817349 0,0.492649 -0.3359,0.839742 -0.33589,0.335897 -0.81734,0.335897 -4.5794,0 -4.5794,-4.568196 v -5.63187 h -0.52624 q -0.47025,0 -0.81734,-0.335897 -0.3359,-0.347093 -0.3359,-0.839742 0,-0.481452 0.3359,-0.817349 0.34709,-0.347093 0.81734,-0.347093 z"
         style="font-style:normal;font-variant:normal;font-weight:bold;font-stretch:normal;font-size:22.93055534px;line-height:2.25;font-family:Comfortaa;-inkscape-font-specification:'Comfortaa Bold';text-align:center;text-anchor:middle;fill:#ffffff;fill-opacity:1;stroke-width:0.26458332"
         id="path955" />
      <path
         d="m 123.68742,57.989022 q -0.19034,-0.615811 -0.57102,-1.119656 -0.36949,-0.515042 -0.87334,-0.873332 -0.49265,-0.369486 -1.09726,-0.571024 -0.59342,-0.201538 -1.23162,-0.201538 -0.6382,0 -1.24282,0.201538 -0.60461,0.201538 -1.10846,0.571024 -0.50384,0.35829 -0.87333,0.873332 -0.36949,0.503845 -0.54863,1.119656 z m -0.50385,3.9076 q 0.50385,0 0.82855,0.335897 0.3359,0.3247 0.3359,0.828545 0,0.492649 -0.3359,0.839742 -1.73547,1.522732 -4.09794,1.522732 -2.5976,0 -4.43384,-1.836236 -1.83623,-1.836236 -1.83623,-4.433838 0,-2.597601 1.83623,-4.433837 1.83624,-1.836236 4.43384,-1.836236 2.57521,0 4.43384,1.836236 0.91811,0.906921 1.37717,2.026577 0.45906,1.108459 0.45906,2.40726 0,0.503846 -0.34709,0.839742 -0.3359,0.324701 -0.82855,0.324701 h -8.86767 q 0.19034,0.615811 0.55983,1.130852 0.36948,0.503846 0.86213,0.873332 0.50385,0.35829 1.09726,0.559828 0.60462,0.201538 1.25402,0.201538 0.73897,0 1.35478,-0.223931 0.61581,-0.223931 1.14205,-0.671794 0.3359,-0.279914 0.77256,-0.29111 z"
         style="font-style:normal;font-variant:normal;font-weight:bold;font-stretch:normal;font-size:22.93055534px;line-height:2.25;font-family:Comfortaa;-inkscape-font-specification:'Comfortaa Bold';text-align:center;text-anchor:middle;fill:#ffffff;fill-opacity:1;stroke-width:0.26458332"
         id="path957" />
      <path
         d="m 130.271,54.047833 v 0.223931 q 0.83974,-0.671793 1.82504,-1.030083 0.98529,-0.35829 2.10495,-0.35829 0.49265,0 1.05248,0.06718 0.57102,0.06718 1.04128,0.246324 0.48145,0.167949 0.79495,0.470256 0.31351,0.302307 0.31351,0.783759 0,0.246325 -0.10077,0.459059 -0.0896,0.212735 -0.24633,0.380683 -0.15675,0.156752 -0.36948,0.246325 -0.21274,0.08957 -0.45906,0.08957 -0.21274,0 -0.49265,-0.123162 -0.70539,-0.279914 -1.53393,-0.279914 -0.81735,0 -1.53393,0.313504 -0.71658,0.302307 -1.25401,0.839742 -0.52624,0.526238 -0.83975,1.242818 -0.3023,0.71658 -0.3023,1.533928 v 5.105632 q 0,0.481452 -0.3471,0.828545 -0.33589,0.335897 -0.81735,0.335897 -0.49264,0 -0.83974,-0.335897 -0.33589,-0.347093 -0.33589,-0.828545 V 54.047833 q 0,-0.481452 0.33589,-0.817349 0.3471,-0.347093 0.83974,-0.347093 0.48146,0 0.81735,0.347093 0.3471,0.335897 0.3471,0.817349 z"
         style="font-style:normal;font-variant:normal;font-weight:bold;font-stretch:normal;font-size:22.93055534px;line-height:2.25;font-family:Comfortaa;-inkscape-font-specification:'Comfortaa Bold';text-align:center;text-anchor:middle;fill:#ffffff;fill-opacity:1;stroke-width:0.26458332"
         id="path959" />
      <path
         d="m 141.0085,59.455772 q -1.05247,-0.403077 -1.47794,-0.828546 h 0.0112 q -0.85093,-0.862135 -0.85093,-2.026577 0,-0.850939 0.44786,-1.533929 0.45906,-0.694187 1.18683,-1.175639 0.72778,-0.481452 1.6347,-0.738973 0.91812,-0.268717 1.83624,-0.268717 2.79914,0 4.80332,2.250508 0.23513,0.291111 0.23513,0.705384 0,0.503845 -0.3359,0.839742 -0.3247,0.3247 -0.82854,0.3247 -0.35829,0 -0.61581,-0.201538 -0.24633,-0.201538 -0.48146,-0.436666 -1.14205,-1.142049 -2.77674,-1.142049 -1.61231,0 -2.57521,0.985297 -0.17915,0.179145 -0.17915,0.492649 0,0.313503 0.29111,0.425469 l 5.23999,1.72427 q 1.09727,0.42547 1.47795,0.828546 h -0.0112 q 0.85094,0.862135 0.85094,2.026577 0,0.862135 -0.45906,1.545126 -0.44786,0.68299 -1.17564,1.175638 -0.72777,0.481452 -1.63469,0.738973 -0.90693,0.257521 -1.82504,0.257521 -2.82154,0 -4.80333,-2.228115 -0.24632,-0.324701 -0.24632,-0.727777 0,-0.503845 0.3247,-0.828545 0.33589,-0.335897 0.83974,-0.335897 0.36949,0 0.62701,0.223931 0.25752,0.212735 0.47025,0.414273 1.14205,1.142049 2.78795,1.142049 1.6011,0 2.57521,-1.00769 0.16794,-0.190342 0.16794,-0.459059 0,-0.313504 -0.3023,-0.436666 z"
         style="font-style:normal;font-variant:normal;font-weight:bold;font-stretch:normal;font-size:22.93055534px;line-height:2.25;font-family:Comfortaa;-inkscape-font-specification:'Comfortaa Bold';text-align:center;text-anchor:middle;fill:#ffffff;fill-opacity:1;stroke-width:0.26458332"
         id="path961" />
    </g>
  </g>
</svg>
