<?xml version="1.0" encoding="UTF-8" standalone="no"?>
<!-- Created with Inkscape (http://www.inkscape.org/) -->

<svg
   xmlns:dc="http://purl.org/dc/elements/1.1/"
   xmlns:cc="http://creativecommons.org/ns#"
   xmlns:rdf="http://www.w3.org/1999/02/22-rdf-syntax-ns#"
   xmlns:svg="http://www.w3.org/2000/svg"
   xmlns="http://www.w3.org/2000/svg"
   xmlns:sodipodi="http://sodipodi.sourceforge.net/DTD/sodipodi-0.dtd"
   xmlns:inkscape="http://www.inkscape.org/namespaces/inkscape"
   width="210mm"
   height="297mm"
   viewBox="0 0 210 297"
   version="1.1"
   id="svg4917"
   inkscape:version="0.92.4 (unknown)"
   sodipodi:docname="croco1.svg">
  <defs
     id="defs4911" />
  <sodipodi:namedview
     id="base"
     pagecolor="#ffffff"
     bordercolor="#666666"
     borderopacity="1.0"
     inkscape:pageopacity="0.0"
     inkscape:pageshadow="2"
     inkscape:zoom="0.35"
     inkscape:cx="400"
     inkscape:cy="560"
     inkscape:document-units="mm"
     inkscape:current-layer="layer1"
     showgrid="false"
     inkscape:window-width="1855"
     inkscape:window-height="1056"
     inkscape:window-x="65"
     inkscape:window-y="24"
     inkscape:window-maximized="1" />
  <metadata
     id="metadata4914">
    <rdf:RDF>
      <cc:Work
         rdf:about="">
        <dc:format>image/svg+xml</dc:format>
        <dc:type
           rdf:resource="http://purl.org/dc/dcmitype/StillImage" />
        <dc:title></dc:title>
      </cc:Work>
    </rdf:RDF>
  </metadata>
  <g
     inkscape:label="Layer 1"
     inkscape:groupmode="layer"
     id="layer1">
    <path
       id="path3785"
       style="fill:#000000;fill-opacity:1;stroke:#000000;stroke-width:0.26458332;stroke-opacity:1"
       d="m 113.745,140.84349 c -1.05802,0.001 -2.80861,0.80071 -2.80861,1.28313 0,0.36867 -3.17101,1.16714 -4.63021,1.16582 -2.77844,-0.26936 -4.53006,-2.27757 -6.99389,0.29662 -0.43023,0.46651 -0.8071,0.64572 -1.13688,0.54105 -0.27139,-0.0861 -0.6704,-0.0102 -0.88625,0.16898 -0.31853,0.26436 -0.46104,0.23224 -0.75706,-0.1726 -0.35674,-0.48788 -0.37678,-0.48761 -0.93224,0.015 -0.49275,0.44594 -0.64261,0.46701 -1.13223,0.16123 -0.49666,-0.31017 -0.61921,-0.28417 -1.02423,0.21601 -0.27109,0.33478 -0.52894,0.4574 -0.62735,0.29817 -0.29784,-0.48191 -0.9338,-0.28655 -1.23765,0.38034 -0.25193,0.55293 -0.37721,0.60734 -0.83613,0.36173 -0.43976,-0.23535 -0.62081,-0.18939 -0.97461,0.24753 -0.30956,0.38229 -0.6378,0.49741 -1.14205,0.40101 -0.58696,-0.1122 -0.70797,-0.0397 -0.70797,0.42478 0,0.44585 -0.16182,0.56018 -0.79375,0.56018 -0.61401,0 -0.79375,0.11822 -0.79375,0.52245 0,0.43411 -0.12846,0.49706 -0.75861,0.37103 -0.65378,-0.13076 -0.78224,-0.0566 -0.93173,0.53899 -0.14296,0.56961 -0.28431,0.66324 -0.80408,0.53278 -0.48579,-0.12192 -0.67064,-0.0316 -0.80564,0.39378 -0.13763,0.43364 -0.31697,0.51657 -0.83509,0.38653 -0.5286,-0.13267 -0.68971,-0.0513 -0.81028,0.4098 -0.12587,0.4813 -0.27767,0.54749 -0.92811,0.40463 -0.64372,-0.14139 -0.80245,-0.0753 -0.92243,0.38344 -0.16631,0.63596 -0.20575,0.64882 -0.88315,0.28628 -0.39432,-0.21103 -0.55867,-0.15981 -0.77308,0.24082 -0.18758,0.35049 -0.44811,0.4627 -0.83819,0.3607 -0.36802,-0.0962 -0.65188,0.005 -0.81132,0.2899 -0.18908,0.33788 -0.36124,0.37623 -0.75137,0.16743 -0.41242,-0.22072 -0.58674,-0.14723 -0.94258,0.39585 -0.24013,0.36647 -0.80949,0.7629 -1.26556,0.88108 -0.45607,0.11818 -0.8294,0.38481 -0.8294,0.59273 0,0.5382 2.98521,1.53924 5.20588,1.74563 1.76469,0.16401 1.84639,0.20126 1.73323,0.79323 -0.0776,0.40592 0.006,0.62167 0.24133,0.62167 0.1981,0 0.36018,0.16962 0.36018,0.37723 0,0.20762 0.20836,0.43213 0.46302,0.49868 1.2037,0.31456 2.12504,-0.0733 4.12326,-1.73426 l 1.279,-1.06298 2.28874,0.18551 c 1.25859,0.10213 2.43376,0.30654 2.61173,0.45424 0.17797,0.14771 0.45067,0.19016 0.60617,0.0941 0.1555,-0.0961 0.2503,-0.017 0.21032,0.1757 -0.04,0.19272 0.0948,0.31433 0.29972,0.27027 0.20495,-0.0441 0.46077,0.0625 0.56844,0.23668 0.14459,0.23395 0.42766,0.17714 1.08262,-0.21704 0.48775,-0.29354 1.57359,-0.60996 2.41278,-0.7028 0.83919,-0.0928 1.97028,-0.3206 2.51354,-0.50643 0.84865,-0.29031 1.15519,-0.27312 2.17816,0.12092 0.84846,0.32682 1.99758,0.46257 3.99872,0.47284 1.54449,0.008 3.44949,0.13686 4.23334,0.2868 2.22114,0.4249 4.65333,0.36976 5.40535,-0.12299 0.78723,-0.51581 0.83732,-1.31723 0.12092,-1.93063 -0.29104,-0.24919 -0.52916,-0.71737 -0.52916,-1.04024 0,-0.85817 -0.48435,-1.01722 -1.16117,-0.38138 -0.68955,0.6478 -0.9555,0.70119 -0.9555,0.19224 0,-0.20046 -0.16794,-0.50358 -0.3731,-0.67386 -0.29462,-0.24451 -0.45278,-0.19605 -0.7519,0.23099 -0.37324,0.53288 -0.38354,0.53049 -0.71003,-0.18551 l -0.33125,-0.72658 -0.61029,0.76533 -0.6103,0.76481 -0.44132,-0.85266 c -0.30883,-0.59722 -0.56814,-0.80382 -0.86506,-0.68988 -0.2332,0.0895 -0.51547,0.0141 -0.62736,-0.16691 -0.15342,-0.24824 -0.34385,-0.20164 -0.77566,0.18913 l -0.57257,0.51832 -0.89504,-1.05782 c -0.49216,-0.58182 -0.89654,-1.13278 -0.89865,-1.22421 -0.002,-0.0914 0.49924,-0.29403 1.11414,-0.45011 0.92028,-0.23359 1.1977,-0.21123 1.57045,0.1261 0.53481,0.484 1.01544,0.27063 1.01544,-0.45114 0,-0.66857 0.31475,-0.65356 0.74517,0.0357 0.27559,0.44129 0.41806,0.48678 0.72502,0.23203 0.21014,-0.17441 0.38189,-0.48355 0.38189,-0.68679 0,-0.26439 0.19261,-0.32116 0.67748,-0.19947 0.54879,0.13774 0.70646,0.0611 0.82837,-0.40514 l 0.15038,-0.57567 0.60462,0.5674 0.60461,0.56793 0.32298,-0.62012 c 0.46238,-0.8877 0.45825,-0.88662 1.05936,-0.34262 0.46796,0.4235 0.58208,0.43909 0.79117,0.10853 0.13441,-0.2125 0.24645,-0.64921 0.24856,-0.97101 0.002,-0.3278 0.46953,-1.04592 1.06247,-1.63297 0.92311,-0.91393 1.05834,-1.20034 1.05834,-2.24017 0,-1.51249 -0.84318,-2.28931 -2.48306,-2.28772 z m 0.29662,0.55294 c 0.55032,-0.002 0.80103,0.153 1.26556,0.61753 0.77918,0.77918 0.74768,1.68358 -0.092,2.63963 -0.66778,0.76035 -3.71932,2.08314 -7.85068,3.40341 -2.0373,0.65107 -3.9423,1.25405 -4.23334,1.33997 -0.36241,0.107 -0.80141,-0.0907 -1.3932,-0.62735 -0.89482,-0.81143 -1.83357,-0.98683 -2.72541,-0.50953 -0.47546,0.25446 -0.5116,0.17633 -0.5116,-1.10122 0.4221,-3.44656 2.64062,-5.27721 5.36815,-3.88659 1.94897,1.01141 6.46512,0.41618 7.69566,-1.01441 0.41444,-0.48181 0.92975,-0.7134 1.80764,-0.81235 0.26896,-0.0303 0.48577,-0.0483 0.6692,-0.0491 z m -0.61598,0.28112 c -2.38317,0.74924 2.54282,0.57578 0.5855,0.0749 -0.20165,-0.0506 -0.40208,-0.074 -0.5855,-0.0749 z m -11.87317,1.75906 c -0.0906,5.3e-4 -0.14108,0.0151 -0.14108,0.0455 0,0.12163 -0.23812,0.15879 -0.52917,0.0827 -0.46657,-0.12201 -0.52916,-0.008 -0.52916,0.96273 0,0.81642 0.16809,1.26933 0.64957,1.7508 0.47785,0.47785 0.93525,0.64957 1.73168,0.64957 1.28136,0 2.38125,-0.91116 2.38125,-1.97249 0,-0.37041 -0.0303,-0.67334 -0.0672,-0.67334 -0.0368,0 -0.87028,-0.22979 -1.85209,-0.51056 -0.73635,-0.21059 -1.37188,-0.33639 -1.64382,-0.33487 z m 0.25269,0.42582 c 0.18498,-0.015 0.2789,0.20169 0.29559,0.67489 0.0153,0.43385 0.1876,0.98111 0.38292,1.21647 0.32562,0.39234 0.38412,0.38874 0.70125,-0.045 0.19031,-0.26017 0.27462,-0.69733 0.18759,-0.97152 -0.12848,-0.4048 -0.042,-0.48211 0.46147,-0.41083 0.91088,0.12897 0.94853,1.08592 0.0698,1.77716 -0.92971,0.73131 -1.57533,0.7067 -2.37194,-0.0899 -0.62612,-0.62612 -0.90533,-1.99626 -0.4067,-1.99626 0.13362,0 0.40151,-0.0609 0.59532,-0.13488 0.0302,-0.0115 0.0583,-0.018 0.0847,-0.0202 z m -5.02915,1.21336 h 1.32809 l -0.031,3.02411 c -0.0169,1.66341 -0.10521,3.21907 -0.19637,3.45663 -0.21938,0.5717 -0.69385,0.25574 -0.71624,-0.47697 -0.011,-0.35972 -0.14891,-0.16056 -0.36328,0.52503 -0.41863,1.33882 -1.2112,2.65988 -2.09341,3.48868 -0.73651,0.69191 -1.48976,0.60734 -2.45619,-0.27595 l -0.56534,-0.51677 0.53641,-1.26969 c 0.38534,-0.91207 0.47719,-1.48492 0.32607,-2.03295 -0.20529,-0.74449 -0.21538,-0.73449 -0.42839,0.40876 -0.12007,0.64441 -0.31042,1.24914 -0.42272,1.3441 -0.22127,0.18711 -4.82089,1.59402 -5.19348,1.58854 -0.12491,-0.002 -0.15018,-0.31079 -0.0558,-0.68678 0.11126,-0.44329 0.0751,-0.62395 -0.10335,-0.51367 -0.15136,0.0935 -0.27544,0.32374 -0.27544,0.5116 0,0.18786 -0.33649,0.80603 -0.74776,1.37356 -0.93393,1.28882 -2.43218,2.44445 -2.9564,2.28048 -0.21828,-0.0683 -0.71922,-0.42432 -1.11311,-0.79116 l -0.71624,-0.66663 0.65009,-1.10949 c 0.37229,-0.63527 0.64038,-1.4947 0.62736,-2.01177 -0.0208,-0.82768 -0.0397,-0.84776 -0.2248,-0.24133 -0.52994,1.73588 -1.31492,2.83896 -2.13733,3.00344 -0.92331,0.18466 -3.91071,-0.18029 -5.22191,-0.63821 -0.84848,-0.29632 -1.1722,-0.77433 -0.52916,-0.78134 0.1819,-0.002 0.59862,-0.0755 0.92604,-0.1633 0.43765,-0.11729 0.59531,-0.0463 0.59531,0.2682 0,0.26957 0.22013,0.42469 0.59531,0.41961 0.54342,-0.007 0.55387,-0.0321 0.11782,-0.28577 -0.37733,-0.21951 -0.41257,-0.35707 -0.16639,-0.6537 0.17141,-0.20654 0.44621,-0.37694 0.6103,-0.37879 0.78443,-0.009 7.2054,-2.84234 9.5622,-4.2199 4.51568,-2.63942 8.16484,-3.97861 10.83913,-3.97857 z m -0.49867,0.84956 c -0.0461,0.008 -0.10904,0.0543 -0.19276,0.13798 -0.16483,0.16484 -0.22807,0.4861 -0.14056,0.71417 0.0943,0.24566 0.45904,0.40785 0.89504,0.3979 0.7045,-0.0161 0.71047,-0.0267 0.14056,-0.25579 -0.32742,-0.13161 -0.59531,-0.44556 -0.59531,-0.69764 0,-0.21335 -0.0301,-0.30926 -0.10697,-0.29662 z m -2.78795,0.47336 c -0.15411,0 -0.28008,0.23812 -0.28008,0.52916 0,0.40495 0.1708,0.52495 0.7276,0.51212 0.71363,-0.0165 0.71579,-0.0211 0.11524,-0.262 -0.33677,-0.13507 -0.53822,-0.36588 -0.44752,-0.51263 0.0907,-0.14676 0.0389,-0.26665 -0.11524,-0.26665 z m 19.98638,0.0718 c 0.0757,0.007 0.10645,0.13698 0.10645,0.40411 0,0.63884 -0.13766,0.73739 -0.41134,0.29455 -0.0978,-0.15819 -0.0452,-0.41993 0.11679,-0.58187 0.0811,-0.0811 0.14267,-0.1211 0.1881,-0.11679 z m -22.4963,0.19275 c -0.0832,0 -0.15141,0.17859 -0.15141,0.39688 0,0.22504 0.2375,0.39687 0.54828,0.39687 0.48717,0 0.50368,-0.0441 0.1509,-0.39687 -0.21828,-0.21829 -0.46462,-0.39688 -0.54777,-0.39688 z m 20.47058,0.52917 c 0.15411,0 0.28009,0.11906 0.28009,0.26458 0,0.14552 -0.0526,0.26458 -0.11679,0.26458 -0.0642,0 -0.19015,-0.11906 -0.28008,-0.26458 -0.0899,-0.14552 -0.0373,-0.26458 0.11678,-0.26458 z m -19.7776,0.83199 c -0.0511,0.0137 -0.10803,0.11811 -0.19069,0.31884 -0.12983,0.31532 -0.0703,0.57343 0.16744,0.72399 0.2031,0.1286 0.54808,0.23182 0.76636,0.22944 0.34038,-0.004 0.33705,-0.0507 -0.0233,-0.32711 -0.23106,-0.17727 -0.48489,-0.50054 -0.56431,-0.71882 -0.0592,-0.16268 -0.1045,-0.24004 -0.15555,-0.22634 z m -1.99729,0.0336 c -0.0327,-0.0183 -0.12647,0.0468 -0.29611,0.18758 -0.22161,0.18393 -0.40308,0.49821 -0.40308,0.69867 0,0.20278 0.2641,0.36282 0.59532,0.3607 0.44752,-0.003 0.50343,-0.0619 0.22582,-0.23771 -0.21927,-0.13884 -0.29728,-0.42132 -0.19223,-0.69505 0.0745,-0.19408 0.10299,-0.29587 0.0703,-0.31419 z m 4.89685,0.0155 c -0.0467,0.006 -0.0958,0.0536 -0.14986,0.14108 -0.11076,0.17921 -0.13483,0.49872 -0.0537,0.71004 0.0907,0.23644 0.48114,0.37436 1.01544,0.35811 0.76846,-0.0233 0.79477,-0.0469 0.23099,-0.20464 -0.35032,-0.098 -0.71638,-0.40567 -0.8139,-0.68368 -0.0794,-0.22624 -0.15107,-0.33112 -0.22893,-0.32091 z m 5.23741,0.44494 c 0.65226,-0.0352 1.60751,0.7156 3.22254,2.35386 2.24608,2.27838 2.38439,2.37104 4.12223,2.75797 0.98892,0.22018 2.75033,0.48446 3.91449,0.58756 1.16417,0.10311 2.38456,0.28798 2.71198,0.41083 0.73058,0.27412 0.77252,0.91707 0.0837,1.28571 -0.59121,0.31641 -3.10506,0.31283 -4.64778,-0.006 -0.58208,-0.1204 -2.36802,-0.2307 -3.96875,-0.24547 -3.62249,-0.0334 -5.27287,-0.52461 -6.14536,-1.82882 -0.66428,-0.99296 -0.80964,-2.88452 -0.3204,-4.17132 0.27659,-0.72749 0.58104,-1.12002 1.02733,-1.14411 z m -12.75426,0.30282 c -0.0276,-0.003 -0.0793,0.0188 -0.15503,0.0656 -0.168,0.10383 -0.30541,0.41983 -0.30541,0.70228 0,0.35209 0.18234,0.51367 0.57981,0.51367 0.55117,0 0.55581,-0.0179 0.092,-0.35709 -0.30718,-0.22462 -0.40889,-0.48467 -0.2744,-0.70228 0.0882,-0.14278 0.10906,-0.21703 0.063,-0.22221 z m 3.13986,1.36271 c -0.0438,0.0114 -0.14036,0.0866 -0.2868,0.22427 -0.256,0.2407 -0.38486,0.56812 -0.28629,0.72761 0.0986,0.15948 0.43284,0.2899 0.74311,0.2899 0.53806,0 0.54181,-0.0168 0.0765,-0.35708 -0.31229,-0.22835 -0.41244,-0.49021 -0.27802,-0.72761 0.0661,-0.11668 0.0753,-0.16853 0.0315,-0.15709 z m -5.50612,0.47077 c -0.0389,0.0114 -0.10687,0.0649 -0.20723,0.15761 -0.18626,0.17212 -0.26683,0.49955 -0.17931,0.72761 0.18041,0.47013 0.59357,0.54451 0.83716,0.15038 0.0899,-0.14552 -0.0185,-0.26459 -0.24082,-0.26459 -0.27062,0 -0.35041,-0.15301 -0.24133,-0.46302 0.0805,-0.22869 0.0963,-0.32698 0.0315,-0.30799 z m 2.39933,0.22893 c -0.18392,0.0125 -0.29399,0.2551 -0.14004,0.65629 0.0875,0.22806 0.33035,0.41496 0.5395,0.41496 0.3104,0 0.32405,-0.11947 0.0744,-0.64854 -0.14304,-0.30317 -0.33082,-0.43244 -0.47387,-0.42271 z m 18.82108,1.33583 c 0.14552,0 0.26458,0.11907 0.26458,0.26459 0,0.14552 -0.11906,0.26458 -0.26458,0.26458 -0.14552,0 -0.26459,-0.11906 -0.26459,-0.26458 0,-0.14552 0.11907,-0.26459 0.26459,-0.26459 z m 1.47071,0.26459 c 0.0642,0 0.11679,0.11906 0.11679,0.26458 0,0.14552 -0.12598,0.26458 -0.28009,0.26458 -0.15411,0 -0.20673,-0.11906 -0.11679,-0.26458 0.0899,-0.14552 0.21592,-0.26458 0.28009,-0.26458 z m -10.16734,0.0139 c 0.32807,-0.0114 0.78762,0.35094 1.17409,1.17047 l 0.54725,1.16013 -0.54725,0.14676 c -0.88314,0.23718 -0.95269,0.19829 -1.35186,-0.75706 -0.44848,-1.07337 -0.24403,-1.70563 0.17777,-1.7203 z m -17.65887,0.0858 c -0.0316,-2.7e-4 -0.0665,0.0101 -0.10284,0.0326 -0.14552,0.0899 -0.26458,0.33497 -0.26458,0.54467 0,0.22517 0.24371,0.37251 0.59531,0.36018 0.32742,-0.0115 0.44649,-0.0806 0.26459,-0.154 -0.1819,-0.0734 -0.33073,-0.30925 -0.33073,-0.52399 0,-0.16107 -0.0669,-0.25858 -0.16175,-0.25942 z m 29.89792,0.26613 c 0.0949,0.004 0.16174,0.10994 0.16174,0.28009 0,0.22687 -0.11906,0.41237 -0.26458,0.41237 -0.14552,0 -0.26458,-0.11215 -0.26458,-0.24907 0,-0.13694 0.11906,-0.32245 0.26458,-0.41238 0.0364,-0.0225 0.0712,-0.0324 0.10284,-0.031 z m -31.77016,0.23875 c -0.0662,0.0107 -0.0827,0.10514 -0.0827,0.28887 0,0.26389 0.22069,0.42943 0.57309,0.42943 0.3153,0 0.52366,-0.0337 0.46302,-0.0749 -0.0606,-0.0412 -0.31843,-0.23451 -0.57309,-0.42943 -0.19817,-0.15168 -0.31412,-0.22464 -0.38034,-0.21394 z m 35.51928,0.18914 c 0.0642,0 0.11679,0.11906 0.11679,0.26458 0,0.14552 -0.12598,0.26458 -0.28009,0.26458 -0.15411,0 -0.20672,-0.11906 -0.11678,-0.26458 0.0899,-0.14552 0.21591,-0.26458 0.28008,-0.26458 z m -21.89065,0.32452 c 0.0301,0.003 0.047,0.0101 0.047,0.0238 0,0.0659 -0.1577,0.49469 -0.35037,0.95292 l -0.35037,0.83354 -0.32091,-0.70487 c -0.17658,-0.38756 -0.28677,-0.7341 -0.24494,-0.76998 0.1561,-0.13389 1.00882,-0.35519 1.21956,-0.33538 z m 5.15472,0.14211 0.34727,0.62684 c 0.19102,0.34454 0.35141,0.7026 0.35657,0.79582 0.005,0.0932 -0.40742,0.21804 -0.91674,0.2775 -0.50933,0.0595 -0.92605,0.061 -0.92605,0.004 0,-0.0575 0.25634,-0.46405 0.56948,-0.90382 z m -6.97167,0.38293 c 0.25809,0.0177 0.31374,0.21221 0.493,0.60564 0.25991,0.57045 0.23836,0.65448 -0.15607,0.61134 -0.25154,-0.0275 -1.17171,-0.0971 -2.04483,-0.15452 l -1.5875,-0.10438 1.5875,-0.50333 c 0.9892,-0.31349 1.44982,-0.47241 1.7079,-0.45475 z m 2.01539,0.93689 c 0.1391,0.006 0.39377,0.13115 0.84077,0.38706 0.5457,0.31242 1.02984,0.5939 1.0759,0.6258 0.0461,0.0319 -0.0432,0.13662 -0.19843,0.23254 -0.15521,0.0959 -0.28216,0.0353 -0.28216,-0.13436 0,-0.16966 -0.16893,-0.24347 -0.37517,-0.16433 -0.20624,0.0791 -0.44332,-0.0349 -0.5271,-0.25321 -0.0838,-0.21832 -0.27203,-0.3226 -0.41858,-0.23203 -0.14654,0.0906 -0.26665,-0.0173 -0.26665,-0.23926 0,-0.12467 0.0249,-0.19863 0.0987,-0.21756 0.0154,-0.004 0.0328,-0.006 0.0527,-0.005 z m -11.17503,1.24954 c 0.0657,-0.006 0.14695,0.0703 0.27337,0.22479 0.16469,0.20127 0.57604,0.54922 0.91415,0.7736 0.37666,0.24995 0.50475,0.47639 0.33073,0.58394 -0.15621,0.0965 -0.28422,0.0492 -0.28422,-0.1049 0,-0.15411 -0.17859,-0.28009 -0.39687,-0.28009 -0.21829,0 -0.39688,-0.11906 -0.39688,-0.26458 0,-0.14552 -0.17489,-0.26459 -0.38861,-0.26459 -0.24001,0 -0.32897,-0.15468 -0.23306,-0.40462 0.0656,-0.17084 0.1157,-0.25796 0.18139,-0.26355 z m 42.25736,3.5357 c -5.3e-4,0.0112 -0.001,0.0224 -0.002,0.0336 10e-4,0.002 0.002,0.005 0.004,0.007 -7.9e-4,-0.0134 -10e-4,-0.0269 -0.002,-0.0403 z"
       inkscape:connector-curvature="0"
       sodipodi:nodetypes="cscccccccccscscssscccscsccccccccsscssscccccsssccccccsccscsccccccccccccsscsccsccccccccccscccscsccccccscccccscscsssccccccccscscccccccccscccscccccscccccccccccscccccccccccscsscccscscccssscsssssscscccccccsccccccsccsccscsccccscccccssccccccscccccscscccssscssssssssssccccscccsccscsssscscsscccssssscsccccccccccscccccccccccscscccscccccccssssccccccc" />
  </g>
</svg>
