<?xml version="1.0" encoding="UTF-8" standalone="no"?>
<!-- Created with Inkscape (http://www.inkscape.org/) -->

<svg
   xmlns:dc="http://purl.org/dc/elements/1.1/"
   xmlns:cc="http://creativecommons.org/ns#"
   xmlns:rdf="http://www.w3.org/1999/02/22-rdf-syntax-ns#"
   xmlns:svg="http://www.w3.org/2000/svg"
   xmlns="http://www.w3.org/2000/svg"
   xmlns:xlink="http://www.w3.org/1999/xlink"
   xmlns:sodipodi="http://sodipodi.sourceforge.net/DTD/sodipodi-0.dtd"
   xmlns:inkscape="http://www.inkscape.org/namespaces/inkscape"
   width="140.30702mm"
   height="51.997818mm"
   viewBox="0 0 140.30702 51.997818"
   version="1.1"
   id="svg7496"
   sodipodi:docname="new_settings_button.svg"
   inkscape:version="0.92.4 (unknown)">
  <defs
     id="defs7490">
    <linearGradient
       id="linearGradient11360"
       inkscape:collect="always">
      <stop
         id="stop11356"
         offset="0"
         style="stop-color:#ffffff;stop-opacity:0.529" />
      <stop
         id="stop11358"
         offset="1"
         style="stop-color:#ff0032;stop-opacity:0.13725491" />
    </linearGradient>
    <linearGradient
       inkscape:collect="always"
       id="linearGradient11120">
      <stop
         style="stop-color:#ffffff;stop-opacity:0.143"
         offset="0"
         id="stop11116" />
      <stop
         style="stop-color:#ffffff;stop-opacity:0.75"
         offset="1"
         id="stop11118" />
    </linearGradient>
    <linearGradient
       inkscape:collect="always"
       id="linearGradient11061">
      <stop
         style="stop-color:#5bff00;stop-opacity:1"
         offset="0"
         id="stop11057" />
      <stop
         style="stop-color:#006100;stop-opacity:0;"
         offset="1"
         id="stop11059" />
    </linearGradient>
    <linearGradient
       inkscape:collect="always"
       xlink:href="#linearGradient11120"
       id="linearGradient11122"
       x1="97.61235"
       y1="44.606396"
       x2="97.61235"
       y2="36.385414"
       gradientUnits="userSpaceOnUse"
       gradientTransform="translate(7.7582324e-6,1.7963868e-6)" />
    <filter
       inkscape:collect="always"
       style="color-interpolation-filters:sRGB"
       id="filter11554"
       x="-0.076406829"
       width="1.1528137"
       y="-0.9648239"
       height="2.9296477">
      <feGaussianBlur
         inkscape:collect="always"
         stdDeviation="3.8747281"
         id="feGaussianBlur11556" />
    </filter>
    <linearGradient
       inkscape:collect="always"
       xlink:href="#linearGradient11360"
       id="linearGradient11558"
       gradientUnits="userSpaceOnUse"
       x1="98.273811"
       y1="72.576637"
       x2="98.273811"
       y2="86.695183"
       gradientTransform="translate(-3.5591191e-7,0.21305899)" />
    <radialGradient
       inkscape:collect="always"
       xlink:href="#linearGradient11061"
       id="radialGradient11560"
       gradientUnits="userSpaceOnUse"
       gradientTransform="matrix(1,0,0,0.33333335,-1.4749978,39.402081)"
       cx="99.124252"
       cy="118.40625"
       fx="99.124252"
       fy="118.40625"
       r="61.515625" />
    <clipPath
       clipPathUnits="userSpaceOnUse"
       id="clipPath11717">
      <rect
         style="opacity:0.37900002;fill:#ff0000;fill-opacity:1;fill-rule:nonzero;stroke:none;stroke-width:2.32833338;stroke-linejoin:round;stroke-miterlimit:4;stroke-dasharray:none;stroke-opacity:1;paint-order:stroke fill markers"
         id="rect11719"
         width="165.09999"
         height="82.549995"
         x="16.404167"
         y="18.129168"
         rx="9.0999994"
         ry="8.315484" />
    </clipPath>
    <clipPath
       clipPathUnits="userSpaceOnUse"
       id="clipPath11721">
      <rect
         style="opacity:0.37900002;fill:#ff0000;fill-opacity:1;fill-rule:nonzero;stroke:none;stroke-width:2.32833338;stroke-linejoin:round;stroke-miterlimit:4;stroke-dasharray:none;stroke-opacity:1;paint-order:stroke fill markers"
         id="rect11723"
         width="165.09999"
         height="82.549995"
         x="16.404167"
         y="18.129168"
         rx="9.0999994"
         ry="8.315484" />
    </clipPath>
    <clipPath
       clipPathUnits="userSpaceOnUse"
       id="clipPath11725">
      <rect
         style="opacity:0.37900002;fill:#ff0000;fill-opacity:1;fill-rule:nonzero;stroke:none;stroke-width:2.32833338;stroke-linejoin:round;stroke-miterlimit:4;stroke-dasharray:none;stroke-opacity:1;paint-order:stroke fill markers"
         id="rect11727"
         width="165.09999"
         height="82.549995"
         x="16.404167"
         y="18.129168"
         rx="9.0999994"
         ry="8.315484" />
    </clipPath>
    <clipPath
       clipPathUnits="userSpaceOnUse"
       id="clipPath11729">
      <rect
         style="opacity:0.37900002;fill:#ff0000;fill-opacity:1;fill-rule:nonzero;stroke:none;stroke-width:2.32833338;stroke-linejoin:round;stroke-miterlimit:4;stroke-dasharray:none;stroke-opacity:1;paint-order:stroke fill markers"
         id="rect11731"
         width="165.09999"
         height="82.549995"
         x="16.404167"
         y="18.129168"
         rx="9.0999994"
         ry="8.315484" />
    </clipPath>
    <clipPath
       clipPathUnits="userSpaceOnUse"
       id="clipPath11733">
      <rect
         style="opacity:0.37900002;fill:#ff0000;fill-opacity:1;fill-rule:nonzero;stroke:none;stroke-width:2.32833338;stroke-linejoin:round;stroke-miterlimit:4;stroke-dasharray:none;stroke-opacity:1;paint-order:stroke fill markers"
         id="rect11735"
         width="165.09999"
         height="82.549995"
         x="16.404167"
         y="18.129168"
         rx="9.0999994"
         ry="8.315484" />
    </clipPath>
    <clipPath
       clipPathUnits="userSpaceOnUse"
       id="clipPath11737">
      <rect
         style="opacity:0.37900002;fill:#ff0000;fill-opacity:1;fill-rule:nonzero;stroke:none;stroke-width:2.32833338;stroke-linejoin:round;stroke-miterlimit:4;stroke-dasharray:none;stroke-opacity:1;paint-order:stroke fill markers"
         id="rect11739"
         width="165.09999"
         height="82.549995"
         x="16.404167"
         y="18.129168"
         rx="9.0999994"
         ry="8.315484" />
    </clipPath>
    <clipPath
       clipPathUnits="userSpaceOnUse"
       id="clipPath11741">
      <rect
         style="opacity:0.37900002;fill:#ff0000;fill-opacity:1;fill-rule:nonzero;stroke:none;stroke-width:2.32833338;stroke-linejoin:round;stroke-miterlimit:4;stroke-dasharray:none;stroke-opacity:1;paint-order:stroke fill markers"
         id="rect11743"
         width="165.09999"
         height="82.549995"
         x="16.404167"
         y="18.129168"
         rx="9.0999994"
         ry="8.315484" />
    </clipPath>
    <clipPath
       clipPathUnits="userSpaceOnUse"
       id="clipPath11717-8">
      <rect
         style="opacity:0.37900002;fill:#ff0000;fill-opacity:1;fill-rule:nonzero;stroke:none;stroke-width:2.32833338;stroke-linejoin:round;stroke-miterlimit:4;stroke-dasharray:none;stroke-opacity:1;paint-order:stroke fill markers"
         id="rect11719-9"
         width="165.09999"
         height="82.549995"
         x="16.404167"
         y="18.129168"
         rx="9.0999994"
         ry="8.315484" />
    </clipPath>
    <clipPath
       clipPathUnits="userSpaceOnUse"
       id="clipPath11717-9">
      <rect
         style="opacity:0.37900002;fill:#ff0000;fill-opacity:1;fill-rule:nonzero;stroke:none;stroke-width:2.32833338;stroke-linejoin:round;stroke-miterlimit:4;stroke-dasharray:none;stroke-opacity:1;paint-order:stroke fill markers"
         id="rect11719-8"
         width="165.09999"
         height="82.549995"
         x="16.404167"
         y="18.129168"
         rx="9.0999994"
         ry="8.315484" />
    </clipPath>
  </defs>
  <sodipodi:namedview
     id="base"
     pagecolor="#ffffff"
     bordercolor="#666666"
     borderopacity="1.0"
     inkscape:pageopacity="0.0"
     inkscape:pageshadow="2"
     inkscape:zoom="1.4142136"
     inkscape:cx="214.63742"
     inkscape:cy="-14.45892"
     inkscape:document-units="px"
     inkscape:current-layer="layer2"
     showgrid="false"
     inkscape:snap-nodes="true"
     inkscape:snap-bbox="true"
     inkscape:bbox-paths="true"
     inkscape:bbox-nodes="true"
     inkscape:snap-bbox-edge-midpoints="true"
     inkscape:snap-bbox-midpoints="true"
     inkscape:window-width="1855"
     inkscape:window-height="1056"
     inkscape:window-x="65"
     inkscape:window-y="24"
     inkscape:window-maximized="1"
     fit-margin-top="0"
     fit-margin-left="0"
     fit-margin-right="0"
     fit-margin-bottom="0" />
  <metadata
     id="metadata7493">
    <rdf:RDF>
      <cc:Work
         rdf:about="">
        <dc:format>image/svg+xml</dc:format>
        <dc:type
           rdf:resource="http://purl.org/dc/dcmitype/StillImage" />
        <dc:title></dc:title>
      </cc:Work>
    </rdf:RDF>
  </metadata>
  <g
     inkscape:label="Layer 1"
     inkscape:groupmode="layer"
     id="layer1"
     transform="translate(-28.1203,-34.910414)">
    <rect
       style="opacity:0.84200003;fill:#006100;fill-opacity:1;stroke:#0f2904;stroke-width:2.95000005;stroke-linejoin:round;stroke-miterlimit:4;stroke-dasharray:none;stroke-opacity:1;paint-order:stroke fill markers"
       id="rect9548"
       width="123.03125"
       height="41.010418"
       x="36.096725"
       y="36.385414"
       ry="8.3154755"
       rx="9"
       clip-path="url(#clipPath11741)"
       transform="matrix(0.34708496,0,0,1.136308,19.37553,-2.8653608)" />
    <rect
       style="opacity:0.51099997;fill:#005e1c;fill-opacity:1;fill-rule:nonzero;stroke:none;stroke-width:2.95000005;stroke-linejoin:round;stroke-miterlimit:4;stroke-dasharray:none;stroke-opacity:1;paint-order:stroke fill markers"
       id="rect9548-5"
       width="123.03125"
       height="41.010418"
       x="36.096725"
       y="36.385414"
       ry="8.3154755"
       rx="9.1000004"
       clip-path="url(#clipPath11737)"
       transform="matrix(0.34708496,0,0,1.136308,19.37553,-2.8653608)" />
    <rect
       style="opacity:0.71300001;fill:url(#linearGradient11122);fill-opacity:1;fill-rule:nonzero;stroke:none;stroke-width:2.91744614;stroke-linejoin:round;stroke-miterlimit:4;stroke-dasharray:none;stroke-opacity:1;paint-order:stroke fill markers"
       id="rect11111"
       width="123.03126"
       height="16.441963"
       x="36.096725"
       y="36.385414"
       rx="7.5827613"
       ry="5.8342509"
       clip-path="url(#clipPath11733)"
       transform="matrix(0.34708496,0,0,1.136308,19.37553,-2.8653608)" />
    <rect
       rx="9.1000004"
       ry="8.3154755"
       y="54.30238"
       x="34.621727"
       height="24.568451"
       width="123.03126"
       id="rect11332"
       style="opacity:0.51099997;fill:url(#radialGradient11560);fill-opacity:1;fill-rule:nonzero;stroke:none;stroke-width:2.95000005;stroke-linejoin:round;stroke-miterlimit:4;stroke-dasharray:none;stroke-opacity:1;paint-order:stroke fill markers"
       clip-path="url(#clipPath11729)"
       transform="matrix(0.34708496,0,0,1.136308,19.37553,-2.8653608)" />
    <rect
       rx="9.0438194"
       ry="8.4369364"
       y="36.085907"
       x="35.797215"
       height="41.609436"
       width="123.63027"
       id="rect11336"
       style="opacity:1;fill:none;fill-opacity:1;stroke:#0f4f04;stroke-width:2.35097861;stroke-linejoin:round;stroke-miterlimit:4;stroke-dasharray:none;stroke-opacity:1;paint-order:stroke fill markers"
       clip-path="url(#clipPath11725)"
       transform="matrix(0.34708496,0,0,1.136308,19.37553,-2.8653608)" />
    <rect
       style="opacity:0.37900002;fill:url(#linearGradient11558);fill-opacity:1;fill-rule:nonzero;stroke:none;stroke-width:2.32833338;stroke-linejoin:round;stroke-miterlimit:4;stroke-dasharray:none;stroke-opacity:1;paint-order:stroke fill markers;filter:url(#filter11554)"
       id="rect11338"
       width="121.70833"
       height="9.6383886"
       x="37.419647"
       y="67.970497"
       rx="9.0999994"
       ry="8.315484"
       clip-path="url(#clipPath11721)"
       transform="matrix(0.34708496,0,0,1.136308,19.37553,-2.8653608)" />
    <text
       transform="matrix(0.34708496,0,0,1.136308,32.01778,-48.279005)"
       xml:space="preserve"
       style="font-style:normal;font-variant:normal;font-weight:bold;font-stretch:normal;font-size:28.22222328px;line-height:2.25;font-family:Comfortaa;-inkscape-font-specification:'Comfortaa Bold';text-align:center;letter-spacing:0px;word-spacing:0px;baseline-shift:baseline;text-anchor:middle;fill:#ffffff;fill-opacity:1;stroke:none;stroke-width:0.26458332"
       x="98.23764"
       y="65.423538"
       id="text11564"
       clip-path="url(#clipPath11717-8)"><tspan
         sodipodi:role="line"
         id="tspan11562"
         x="98.23764"
         y="65.423538"
         style="font-style:normal;font-variant:normal;font-weight:bold;font-stretch:normal;font-size:22.93055534px;line-height:2.25;font-family:Comfortaa;-inkscape-font-specification:'Comfortaa Bold';text-align:center;baseline-shift:baseline;text-anchor:middle;fill:#ffffff;fill-opacity:1;stroke-width:0.26458332">Settings</tspan></text>
    <flowRoot
       xml:space="preserve"
       id="flowRoot31254"
       style="fill:black;fill-opacity:1;stroke:none;font-family:sans-serif;font-style:normal;font-weight:normal;font-size:40px;line-height:1.25;letter-spacing:0px;word-spacing:0px"><flowRegion
         id="flowRegion31256"><rect
           id="rect31258"
           width="605"
           height="388"
           x="9"
           y="-65.472816" /></flowRegion><flowPara
         id="flowPara31260"></flowPara></flowRoot>  </g>
  <g
     inkscape:groupmode="layer"
     id="layer2"
     inkscape:label="Layer 2"
     transform="translate(-28.1203,-34.910414)">
    <path
       style="fill:#ffffff;stroke-width:0.03420299"
       d="m 47.720313,78.449315 c -0.610109,-0.108032 -1.557965,-0.441372 -2.224466,-0.782295 -0.69341,-0.354688 -1.30918,-0.860059 -1.517749,-1.245638 -0.07592,-0.140345 -0.103412,-0.24359 -0.115648,-0.434238 -0.01878,-0.292632 0.0163,-0.440367 0.217853,-0.917381 0.199162,-0.471362 0.274179,-0.732329 0.323771,-1.126318 0.107078,-0.850704 -0.07193,-1.638815 -0.527859,-2.32404 -0.620847,-0.933078 -1.382274,-1.296018 -2.722876,-1.29788 -0.623814,-8.66e-4 -1.009113,0.05242 -1.590439,0.219955 -0.661642,0.190683 -1.19929,0.09542 -1.61282,-0.285755 -0.305744,-0.281825 -0.799239,-1.146158 -1.049847,-1.838756 -0.156079,-0.43135 -0.321458,-1.107363 -0.362968,-1.483685 -0.05907,-0.535545 0.05286,-1.035038 0.295454,-1.318456 0.09742,-0.113815 0.218117,-0.1902 0.543651,-0.34406 0.490611,-0.231882 0.820113,-0.438262 1.185504,-0.742528 0.711724,-0.59266 1.204489,-1.303846 1.402994,-2.024882 0.05906,-0.214535 0.07156,-0.357893 0.07182,-0.824066 3.07e-4,-0.515635 -0.0076,-0.590296 -0.0916,-0.864936 -0.114135,-0.373216 -0.288973,-0.726341 -0.503152,-1.016229 -0.190411,-0.257718 -0.710742,-0.772707 -1.007736,-0.997391 -0.292523,-0.2213 -0.792532,-0.512574 -1.075331,-0.62642 -0.332989,-0.134051 -0.485329,-0.274748 -0.646808,-0.597374 -0.256129,-0.511728 -0.267374,-1.05585 -0.03998,-1.934478 0.335962,-1.298116 1.018193,-2.423971 1.658756,-2.737369 0.26664,-0.130455 0.528989,-0.108806 1.163655,0.09602 0.812186,0.262122 1.446296,0.324228 2.180493,0.213559 0.850952,-0.128267 1.622022,-0.552071 2.171896,-1.193741 0.315502,-0.368172 0.580287,-1.080363 0.69542,-1.870471 0.0928,-0.636812 0.03951,-1.68971 -0.114995,-2.272081 -0.03993,-0.150493 -0.07309,-0.373668 -0.0737,-0.495944 -9.48e-4,-0.18982 0.0163,-0.25474 0.118011,-0.444105 0.150547,-0.280289 0.451692,-0.58604 0.803183,-0.815466 0.86438,-0.564197 2.209136,-1.009972 3.189289,-1.05722 0.379191,-0.01828 0.387738,-0.01702 0.603062,0.08899 0.280766,0.13822 0.427396,0.327261 0.698553,0.900603 0.266971,0.564491 0.494951,0.893617 0.895631,1.292998 0.38068,0.379449 0.75907,0.649825 1.12475,0.803688 0.44434,0.186964 0.65679,0.228769 1.2528,0.246527 0.64068,0.01909 1.04596,-0.0459 1.55377,-0.249142 0.86468,-0.346085 1.71739,-1.172938 2.05776,-1.995381 0.18836,-0.455133 0.55208,-0.889766 0.86255,-1.030721 0.47419,-0.215285 2.05897,0.143501 2.98217,0.675146 0.7813,0.449935 1.45319,1.158456 1.5394,1.623344 0.0311,0.167672 -0.0315,0.452173 -0.19379,0.880198 -0.33262,0.877507 -0.38335,1.632375 -0.16665,2.479679 0.24983,0.97682 1.07758,1.94944 1.98211,2.329006 0.42741,0.179355 0.69558,0.22969 1.32314,0.248354 0.83274,0.02477 1.41358,-0.0856 2.06566,-0.39249 0.21412,-0.100773 0.30558,-0.123466 0.55331,-0.137293 0.49242,-0.02748 0.77016,0.113374 1.13614,0.576216 0.38064,0.481361 0.65294,1.027274 0.92821,1.860862 0.22231,0.673209 0.33387,1.227149 0.33752,1.675947 0.004,0.461613 -0.0531,0.609636 -0.34592,0.901046 -0.16276,0.161958 -0.26009,0.223089 -0.54753,0.343908 -0.61211,0.257286 -1.04615,0.558043 -1.4979,1.037933 -0.47906,0.508908 -0.78271,1.033701 -0.94506,1.633355 -0.0686,0.25353 -0.0788,0.371681 -0.0795,0.923481 -6.8e-4,0.556339 0.009,0.667774 0.0783,0.922727 0.17532,0.642818 0.44097,1.113692 0.89529,1.58692 0.34057,0.354751 0.67188,0.587504 1.17309,0.824127 0.64679,0.305357 0.9826,0.617506 1.15574,1.074335 0.0654,0.172576 0.071,0.239323 0.0547,0.653934 -0.035,0.892158 -0.37145,1.906958 -0.89977,2.713644 -0.38465,0.587323 -0.78743,0.91097 -1.32804,1.067137 -0.25692,0.07422 -0.57808,0.05263 -0.96441,-0.06483 -0.7111,-0.216197 -1.47526,-0.313768 -2.04016,-0.260496 -1.19766,0.112943 -1.83635,0.431079 -2.42304,1.206942 -0.41703,0.551493 -0.66782,1.223078 -0.7098,1.900745 -0.0443,0.715455 0.0419,1.230957 0.32623,1.950501 0.13505,0.34174 0.15429,0.422794 0.15429,0.649907 0,0.559324 -0.25621,0.940752 -0.94141,1.401514 -0.79908,0.537343 -1.88503,0.95023 -2.80073,1.064862 -0.39519,0.04947 -0.64479,0.03409 -0.82215,-0.05066 -0.18482,-0.08831 -0.45526,-0.341856 -0.56225,-0.527112 -0.0503,-0.08718 -0.10084,-0.1662 -0.11222,-0.175606 -0.0114,-0.0094 -0.0415,-0.07097 -0.0668,-0.136812 -0.20407,-0.529281 -0.59993,-1.120171 -1.03782,-1.549139 -0.49214,-0.482111 -0.99788,-0.780257 -1.59293,-0.939077 -0.2884,-0.07697 -0.39671,-0.08781 -0.87632,-0.0877 -0.60547,1.37e-4 -0.83104,0.04297 -1.33807,0.254043 -0.82012,0.34142 -1.72742,1.241879 -2.116348,2.100399 -0.238325,0.526081 -0.299401,0.631118 -0.445018,0.765344 -0.378242,0.348651 -0.894718,0.450958 -1.624347,0.321763 z m 6.671702,-8.974124 c 1.62057,-0.229512 3.15932,-1.001336 4.32529,-2.16953 1.02217,-1.024116 1.76644,-2.323365 2.10151,-3.668531 0.17116,-0.687114 0.22013,-1.111263 0.22013,-1.906533 0,-1.270517 -0.21234,-2.223772 -0.74664,-3.351894 -0.9721,-2.052467 -2.85292,-3.610364 -5.06164,-4.192605 -1.18061,-0.311218 -2.53337,-0.333372 -3.76512,-0.06166 -1.10355,0.243429 -2.315982,0.849565 -3.257918,1.628745 -1.30641,1.080679 -2.275712,2.687163 -2.626326,4.352773 -0.203702,0.967698 -0.203702,2.281587 0,3.249285 0.297211,1.411919 1.019346,2.757519 2.053446,3.826319 0.67923,0.702023 1.309371,1.164285 2.164424,1.587792 1.426004,0.706296 2.943224,0.939468 4.592844,0.705841 z"
       id="path31297"
       inkscape:connector-curvature="0" />
  </g>
</svg>
