<?xml version="1.0" encoding="UTF-8" standalone="no"?>
<!-- Created with Inkscape (http://www.inkscape.org/) -->

<svg
   xmlns:dc="http://purl.org/dc/elements/1.1/"
   xmlns:cc="http://creativecommons.org/ns#"
   xmlns:rdf="http://www.w3.org/1999/02/22-rdf-syntax-ns#"
   xmlns:svg="http://www.w3.org/2000/svg"
   xmlns="http://www.w3.org/2000/svg"
   xmlns:sodipodi="http://sodipodi.sourceforge.net/DTD/sodipodi-0.dtd"
   xmlns:inkscape="http://www.inkscape.org/namespaces/inkscape"
   width="32.757092mm"
   height="18.495388mm"
   viewBox="0 0 32.757092 18.495388"
   version="1.1"
   id="svg17348"
   inkscape:version="0.92.4 (unknown)"
   sodipodi:docname="aqua_jaws.svg">
  <defs
     id="defs17342">
    <clipPath
       clipPathUnits="userSpaceOnUse"
       id="clipPath16839">
      <rect
         style="opacity:0.37900002;fill:#808000;fill-opacity:1;fill-rule:nonzero;stroke:none;stroke-width:6.60000038;stroke-linejoin:round;stroke-miterlimit:4;stroke-dasharray:none;stroke-opacity:1;paint-order:stroke fill markers"
         id="rect16841"
         width="267.85266"
         height="157.50804"
         x="32.925407"
         y="-778.04822"
         rx="25.795275"
         ry="23.571451" />
    </clipPath>
    <clipPath
       clipPathUnits="userSpaceOnUse"
       id="clipPath16843">
      <rect
         style="opacity:0.37900002;fill:#808000;fill-opacity:1;fill-rule:nonzero;stroke:none;stroke-width:6.60000038;stroke-linejoin:round;stroke-miterlimit:4;stroke-dasharray:none;stroke-opacity:1;paint-order:stroke fill markers"
         id="rect16845"
         width="267.85266"
         height="157.50804"
         x="32.925407"
         y="-778.04822"
         rx="25.795275"
         ry="23.571451" />
    </clipPath>
    <clipPath
       clipPathUnits="userSpaceOnUse"
       id="clipPath16847">
      <rect
         style="opacity:0.37900002;fill:#808000;fill-opacity:1;fill-rule:nonzero;stroke:none;stroke-width:6.60000038;stroke-linejoin:round;stroke-miterlimit:4;stroke-dasharray:none;stroke-opacity:1;paint-order:stroke fill markers"
         id="rect16849"
         width="267.85266"
         height="157.50804"
         x="32.925407"
         y="-778.04822"
         rx="25.795275"
         ry="23.571451" />
    </clipPath>
    <clipPath
       clipPathUnits="userSpaceOnUse"
       id="clipPath16851">
      <rect
         style="opacity:0.37900002;fill:#808000;fill-opacity:1;fill-rule:nonzero;stroke:none;stroke-width:6.60000038;stroke-linejoin:round;stroke-miterlimit:4;stroke-dasharray:none;stroke-opacity:1;paint-order:stroke fill markers"
         id="rect16853"
         width="267.85266"
         height="157.50804"
         x="32.925407"
         y="-778.04822"
         rx="25.795275"
         ry="23.571451" />
    </clipPath>
    <clipPath
       clipPathUnits="userSpaceOnUse"
       id="clipPath16855">
      <rect
         style="opacity:0.37900002;fill:#808000;fill-opacity:1;fill-rule:nonzero;stroke:none;stroke-width:6.60000038;stroke-linejoin:round;stroke-miterlimit:4;stroke-dasharray:none;stroke-opacity:1;paint-order:stroke fill markers"
         id="rect16857"
         width="267.85266"
         height="157.50804"
         x="32.925407"
         y="-778.04822"
         rx="25.795275"
         ry="23.571451" />
    </clipPath>
    <clipPath
       clipPathUnits="userSpaceOnUse"
       id="clipPath16859">
      <rect
         style="opacity:0.37900002;fill:#808000;fill-opacity:1;fill-rule:nonzero;stroke:none;stroke-width:6.60000038;stroke-linejoin:round;stroke-miterlimit:4;stroke-dasharray:none;stroke-opacity:1;paint-order:stroke fill markers"
         id="rect16861"
         width="267.85266"
         height="157.50804"
         x="32.925407"
         y="-778.04822"
         rx="25.795275"
         ry="23.571451" />
    </clipPath>
    <clipPath
       clipPathUnits="userSpaceOnUse"
       id="clipPath16863">
      <rect
         style="opacity:0.37900002;fill:#808000;fill-opacity:1;fill-rule:nonzero;stroke:none;stroke-width:6.60000038;stroke-linejoin:round;stroke-miterlimit:4;stroke-dasharray:none;stroke-opacity:1;paint-order:stroke fill markers"
         id="rect16865"
         width="267.85266"
         height="157.50804"
         x="32.925407"
         y="-778.04822"
         rx="25.795275"
         ry="23.571451" />
    </clipPath>
  </defs>
  <sodipodi:namedview
     id="base"
     pagecolor="#ffffff"
     bordercolor="#666666"
     borderopacity="1.0"
     inkscape:pageopacity="0.0"
     inkscape:pageshadow="2"
     inkscape:zoom="8"
     inkscape:cx="72.645901"
     inkscape:cy="37.576311"
     inkscape:document-units="mm"
     inkscape:current-layer="layer1"
     showgrid="false"
     fit-margin-top="0"
     fit-margin-left="0"
     fit-margin-right="0"
     fit-margin-bottom="0"
     inkscape:window-width="1855"
     inkscape:window-height="1056"
     inkscape:window-x="65"
     inkscape:window-y="24"
     inkscape:window-maximized="1" />
  <metadata
     id="metadata17345">
    <rdf:RDF>
      <cc:Work
         rdf:about="">
        <dc:format>image/svg+xml</dc:format>
        <dc:type
           rdf:resource="http://purl.org/dc/dcmitype/StillImage" />
        <dc:title></dc:title>
      </cc:Work>
    </rdf:RDF>
  </metadata>
  <g
     inkscape:label="Layer 1"
     inkscape:groupmode="layer"
     id="layer1"
     transform="translate(-108.02286,-75.187948)">
    <path
       style="opacity:0.37900002;fill:#808000;fill-opacity:1;fill-rule:nonzero;stroke:none;stroke-width:2.32833338;stroke-linejoin:round;stroke-miterlimit:4;stroke-dasharray:none;stroke-opacity:1;paint-order:stroke fill markers"
       d="m 122.68628,84.741585 c 0.35173,-0.390253 0.69389,-0.737725 0.981,-0.980027 0.11825,-0.09984 0.21457,-0.180345 0.28016,-0.235089 0.0262,0.117694 0.0525,0.296467 0.0786,0.522313 0.0438,0.381553 0.0615,0.855191 0.0555,1.379463 -0.11455,-0.04124 -0.22972,-0.08373 -0.34657,-0.126996 -0.35983,-0.13375 -0.70848,-0.324166 -1.04864,-0.559664 0,0 0,0 0,0 z"
       id="path17418"
       inkscape:connector-curvature="0" />
    <path
       style="opacity:0.37900002;fill:#808000;fill-opacity:1;fill-rule:nonzero;stroke:none;stroke-width:2.32833338;stroke-linejoin:round;stroke-miterlimit:4;stroke-dasharray:none;stroke-opacity:1;paint-order:stroke fill markers"
       d="m 125.28324,85.84304 c 0.24564,-0.494863 0.49902,-0.95153 0.72765,-1.289128 0.10091,-0.149085 0.18189,-0.267856 0.23522,-0.344486 0.0696,0.128849 0.16127,0.346537 0.26648,0.629472 0.15357,0.412015 0.30524,0.932089 0.44231,1.508297 -0.53254,-0.146067 -1.08658,-0.312277 -1.67166,-0.504155 0,0 0,0 0,0 z"
       id="path17416"
       inkscape:connector-curvature="0" />
    <path
       style="opacity:0.37900002;fill:#808000;fill-opacity:1;fill-rule:nonzero;stroke:none;stroke-width:2.32833338;stroke-linejoin:round;stroke-miterlimit:4;stroke-dasharray:none;stroke-opacity:1;paint-order:stroke fill markers"
       d="m 129.3259,86.901943 c 0.25044,-0.510303 0.51119,-0.988132 0.74996,-1.347432 0.11276,-0.170177 0.20393,-0.305129 0.26232,-0.389246 0.0642,0.119591 0.14822,0.316846 0.24583,0.571423 0.15106,0.3948 0.30146,0.896865 0.43797,1.457861 -0.56595,-0.08664 -1.12611,-0.181422 -1.69608,-0.292606 0,0 0,0 0,0 z"
       id="path17414"
       inkscape:connector-curvature="0" />
    <path
       style="opacity:0.37900002;fill:#808000;fill-opacity:1;fill-rule:nonzero;stroke:none;stroke-width:2.32833338;stroke-linejoin:round;stroke-miterlimit:4;stroke-dasharray:none;stroke-opacity:1;paint-order:stroke fill markers"
       d="m 132.56955,87.413881 c 0.23917,-0.480898 0.48651,-0.927888 0.71297,-1.266811 0.10793,-0.16078 0.19461,-0.289246 0.2513,-0.370523 0.0587,0.110316 0.13504,0.286283 0.2239,0.511407 0.14225,0.36327 0.28497,0.822652 0.41601,1.338154 -0.25433,-0.03399 -0.50355,-0.06669 -0.74901,-0.09883 -0.29015,-0.0382 -0.57481,-0.07591 -0.85517,-0.113396 0,0 0,0 0,-10e-7 z"
       id="path17412"
       inkscape:connector-curvature="0" />
    <path
       style="opacity:0.37900002;fill:#808000;fill-opacity:1;fill-rule:nonzero;stroke:none;stroke-width:2.32833338;stroke-linejoin:round;stroke-miterlimit:4;stroke-dasharray:none;stroke-opacity:1;paint-order:stroke fill markers"
       d="m 136.21195,87.911428 c 0.41572,-0.425073 0.83986,-0.823984 1.20624,-1.118735 0.22171,-0.178403 0.40023,-0.317753 0.50595,-0.393433 0.0177,0.111888 0.0322,0.281386 0.0438,0.495584 0.0196,0.369716 0.009,0.830585 -0.03,1.342387 -0.29735,-0.08361 -0.61854,-0.153844 -0.96371,-0.208309 -0.26031,-0.04124 -0.51436,-0.08039 -0.76231,-0.117494 0,0 0,0 0,0 z"
       id="path17410"
       inkscape:connector-curvature="0" />
    <path
       style="opacity:0.37900002;fill:#808000;fill-opacity:1;fill-rule:nonzero;stroke:none;stroke-width:2.32833338;stroke-linejoin:round;stroke-miterlimit:4;stroke-dasharray:none;stroke-opacity:1;paint-order:stroke fill markers"
       d="m 116.51958,78.947492 c 0.62218,0.718666 1.22464,1.517681 1.82357,2.312021 1.57049,2.083328 3.1178,4.136238 5.08799,4.867077 4.07602,1.511652 6.61225,1.844903 9.87799,2.274031 1.07053,0.140793 2.22038,0.291765 3.52865,0.498785 1.5828,0.250224 2.53765,0.834294 2.9036,1.484005 0.13497,0.240047 0.18317,0.489699 0.14478,0.729471 -0.0389,0.246299 -0.16947,0.490207 -0.38973,0.711816 -0.65868,0.664424 -2.04491,1.111119 -4.13562,0.940945 -2.72001,-0.220928 -4.54312,-0.671213 -6.16109,-1.071016 -1.85699,-0.458503 -3.45181,-0.852565 -5.75659,-0.781648 -1.72763,0.05311 -3.40632,0.0055 -4.97526,-0.169398 -2.72636,-0.304594 -5.10568,-0.992108 -6.80769,-2.204335 -1.65852,-1.180714 -2.6804,-2.877312 -2.7529,-5.229267 -0.0133,-0.440277 0.006,-0.906356 0.0612,-1.399691 0.19944,-1.784636 0.60059,-3.316282 1.21221,-4.375031 0.37932,-0.65666 0.83618,-1.121248 1.37092,-1.333358 0.52066,-0.206842 1.13884,-0.176707 1.86013,0.146605 0.89473,0.401395 1.92877,1.236108 3.10782,2.598988 0,0 0,0 0,0 z"
       id="path17408"
       inkscape:connector-curvature="0" />
    <path
       style="opacity:0.37900002;fill:#808000;fill-opacity:1;fill-rule:nonzero;stroke:none;stroke-width:2.32833338;stroke-linejoin:round;stroke-miterlimit:4;stroke-dasharray:none;stroke-opacity:1;paint-order:stroke fill markers"
       d="m 127.91168,86.593942 c -0.16824,-0.783531 -0.36917,-1.505012 -0.57586,-2.060162 -0.25085,-0.672785 -0.54538,-1.141624 -0.85402,-1.26811 0,0 -0.16743,-0.03326 -0.16743,-0.03326 -0.33455,0.0011 -0.68936,0.324125 -1.0322,0.830096 -0.10859,0.160401 -0.22043,0.342356 -0.33392,0.538715 -0.0103,-0.235859 -0.0265,-0.454793 -0.0491,-0.652332 -0.0716,-0.625613 -0.22769,-1.086411 -0.47424,-1.276114 0,0 -0.15423,-0.07617 -0.15423,-0.07617 -0.31403,-0.08451 -0.72428,0.119183 -1.17047,0.495333 -0.33862,0.285389 -0.72398,0.675542 -1.10645,1.101387 -1.02478,-0.909943 -1.98191,-2.178994 -2.94831,-3.461664 -0.60795,-0.805871 -1.21911,-1.616399 -1.86154,-2.359281 -1.26949,-1.466812 -2.40643,-2.376122 -3.41266,-2.827218 -0.95569,-0.428855 -1.80447,-0.456858 -2.54671,-0.162676 -0.7275,0.28945 -1.32865,0.885581 -1.80777,1.715365 -0.67424,1.166788 -1.1121,2.815299 -1.32393,4.713635 -0.0593,0.530175 -0.0802,1.038115 -0.0654,1.524358 0.0817,2.658662 1.2408,4.579386 3.12203,5.919002 1.83755,1.308263 4.35652,2.044937 7.21921,2.364357 1.60716,0.179786 3.32841,0.228108 5.10011,0.173595 2.19264,-0.0677 3.73008,0.312554 5.52034,0.754666 1.66276,0.410518 3.53744,0.873607 6.29988,1.097876 2.37547,0.193238 4.00778,-0.372401 4.83032,-1.201466 0.35624,-0.358956 0.56995,-0.768094 0.63712,-1.194681 0.0689,-0.432877 -0.0134,-0.877074 -0.25069,-1.297951 -0.30284,-0.53812 -0.87093,-1.03631 -1.70865,-1.407524 0.0565,-0.642461 0.0752,-1.229005 0.0502,-1.695622 -0.0324,-0.603815 -0.15674,-1.055299 -0.38557,-1.256973 0,0 -0.14904,-0.0859 -0.14904,-0.0859 -0.35022,-0.120117 -0.87192,0.140836 -1.4456,0.602694 -0.53595,0.431136 -1.16536,1.045743 -1.7262,1.649243 -0.0101,-0.0013 -0.0205,-0.0029 -0.0312,-0.0042 -0.16191,-0.687274 -0.34659,-1.307645 -0.53423,-1.784819 -0.23645,-0.601275 -0.51193,-1.017497 -0.80405,-1.137048 0,0 -0.16708,-0.03324 -0.16708,-0.03324 -0.34111,0.0011 -0.7039,0.33765 -1.05406,0.860994 -0.22417,0.334908 -0.46464,0.763465 -0.69866,1.225667 -0.13887,-0.5525 -0.29187,-1.05436 -0.44716,-1.460257 -0.24333,-0.636495 -0.52846,-1.078255 -0.82849,-1.201514 0,0 -0.16743,-0.03309 -0.16743,-0.03309 -0.3437,0.0012 -0.71157,0.345515 -1.06611,0.879489 -0.29086,0.438411 -0.60836,1.030462 -0.90305,1.647388 -0.17419,-0.03896 -0.34984,-0.07956 -0.52777,-0.122695 0,0 0,0 0,0 z"
       id="rect17398"
       inkscape:connector-curvature="0" />
    <path
       style="fill:#000000;stroke:none;stroke-width:0.08928572"
       d="M 103.39137,69.771487 C 98.743877,69.402202 93.562904,68.699353 89.19494,67.845602 86.512386,67.321278 84.364154,66.836654 79.953868,65.76089 73.330064,64.145202 71.170365,63.688799 68.148548,63.266111 64.752655,62.791095 64.555676,62.783147 55.891368,62.771532 48.082489,62.761063 46.79034,62.728592 43.123511,62.450677 35.34967,61.861485 28.456575,60.553614 22.721725,58.579716 18.773075,57.220617 14.932179,55.323434 12.079163,53.3229 8.6180584,50.895976 5.8065065,47.939372 3.8927918,44.714185 0.20464416,38.498542 -0.77514252,31.423337 0.71780399,21.787063 1.5263242,16.568442 2.7773073,12.262213 4.5051434,8.7499958 7.0477665,3.5815404 10.346148,0.73835215 14.504892,0.13026335 c 1.09065,-0.15947406 3.031823,-0.06128654 4.199657,0.21242509 5.10968,1.19758316 10.766192,5.52128946 16.983077,12.98146956 1.440752,1.728883 3.095393,3.851392 6.144987,7.882548 4.875577,6.444865 6.453297,8.347578 9.311047,11.229028 l 1.617401,1.630813 1.456964,-1.515099 c 2.356461,-2.450488 4.088154,-3.836484 5.419483,-4.337595 0.786166,-0.295911 1.640375,-0.302999 2.143941,-0.01779 1.04562,0.592222 1.769046,2.597148 2.007889,5.510641 0.05435,0.662946 0.136344,1.339746 0.168575,1.503998 l 0.0586,0.298641 0.57229,-0.923641 c 1.499172,-2.419571 2.688405,-3.648875 3.919469,-4.051536 0.590283,-0.193071 1.235381,-0.067 1.810909,0.353913 1.456365,1.065108 2.973074,4.567906 4.274653,9.872196 0.198825,0.810268 0.411613,1.673591 0.472861,1.918495 l 0.11136,0.44528 0.981657,0.230388 0.981657,0.230388 0.854187,-1.65781 c 0.973807,-1.889972 1.494096,-2.820555 2.241836,-4.009723 2.163195,-3.440232 4.070216,-4.590319 5.601798,-3.378335 0.915076,0.724126 1.91889,2.489311 2.770395,4.871683 0.438523,1.226917 1.344284,4.27528 1.344284,4.524227 0,0.346052 0.214089,0.143337 0.54367,-0.514793 0.531928,-1.062176 1.455598,-2.665361 2.072562,-3.5973 1.819643,-2.74861 3.249911,-3.75376 4.749134,-3.33755 0.481456,0.133659 1.392509,1.077291 1.939161,2.008493 0.930724,1.585465 1.900524,4.267532 2.740994,7.580456 0.19578,0.771683 0.37361,1.420713 0.39519,1.442289 0.0216,0.02158 0.83727,-0.771801 1.81265,-1.763061 4.40604,-4.477764 7.22899,-6.554786 9.27831,-6.826636 2.2592,-0.299695 3.25217,2.573464 2.98536,8.638195 -0.0456,1.037287 -0.1085,2.111533 -0.13969,2.387214 l -0.0567,0.501236 0.9789,0.499086 c 1.932,0.985029 3.56866,2.252962 4.63406,3.590057 0.66946,0.840188 1.46382,2.398171 1.6798,3.294607 0.45809,1.901337 0.1425,3.866163 -0.90401,5.628253 -0.53279,0.897107 -2.09696,2.502349 -3.06508,3.145561 -2.59216,1.722221 -6.11246,2.801652 -10.31394,3.162564 -1.22049,0.104841 -4.56224,0.103676 -5.89286,-0.0021 z m 7.05357,-3.428884 c 2.98787,-0.408585 5.378,-1.199774 7.1875,-2.379228 0.3192,-0.208056 0.90572,-0.704616 1.3034,-1.103467 1.93401,-1.939746 2.04408,-4.145528 0.31528,-6.318106 -1.47,-1.847338 -4.22044,-3.316187 -7.91332,-4.226037 -1.8745,-0.461838 -6.35909,-1.135321 -16.607146,-2.494018 C 83.995442,48.398463 79.422,47.597228 73.346725,46.075433 67.44659,44.597508 59.225095,41.905318 56.415866,40.531296 53.623114,39.165333 50.623677,36.80351 47.692173,33.662063 45.328789,31.129423 43.570175,28.963899 39.281181,23.30492 33.187549,15.264868 30.795926,12.438093 27.587797,9.4839425 20.639963,3.0861515 15.126482,1.6935379 11.009213,5.2964675 7.4374856,8.4220046 4.8545532,15.142997 3.7109705,24.287063 c -0.5334689,4.265608 -0.4746444,7.980007 0.1781648,11.25 1.8798093,9.416171 8.6595777,16.125288 20.2165187,20.005843 6.302802,2.116337 12.524585,3.185278 22.142857,3.80428 1.106751,0.07123 4.489637,0.112497 9.732143,0.118726 8.103218,0.0096 8.570483,0.02452 11.383928,0.362841 3.501092,0.421007 5.881178,0.902191 12.723215,2.572258 5.711703,1.394164 8.319439,1.963838 11.875,2.594158 3.18766,0.565098 7.688446,1.142058 10.803573,1.384922 0.6875,0.0536 1.39062,0.11315 1.5625,0.132336 0.79026,0.08822 5.10528,-0.0316 6.11607,-0.169824 z m 2.67021,-17.792147 c 0.14229,-1.873803 0.0489,-5.941273 -0.13906,-6.057445 -0.17758,-0.109752 -2.78169,2.067514 -5.06403,4.233974 -1.14083,1.0829 -1.34406,1.31328 -1.20536,1.366421 0.0917,0.03515 0.62886,0.129585 1.1936,0.209846 1.5621,0.222011 3.34713,0.554976 4.24107,0.791093 0.44196,0.116737 0.82853,0.217899 0.85902,0.224805 0.0305,0.0069 0.0821,-0.339006 0.11476,-0.768694 z M 98.793154,46.891625 c 0,-0.214641 -0.782652,-2.849862 -1.185857,-3.99284 -0.379554,-1.075923 -1.119465,-2.852793 -1.187938,-2.852793 -0.06185,0 -1.256196,1.828539 -1.837044,2.8125 -0.789991,1.338241 -1.800679,3.259317 -1.744375,3.315623 0.03854,0.03854 5.319232,0.789544 5.798964,0.824709 0.08594,0.0063 0.15625,-0.04194 0.15625,-0.107199 z m -11.875,-1.542255 c 0,-0.133368 -0.715427,-2.872515 -1.04533,-3.740878 -0.414185,-1.090208 -0.991718,-2.6932 -1.305052,-3.427697 l -0.225957,-0.481267 -0.822864,1.30437 c -1.072813,1.628719 -2.940083,4.921941 -2.940083,5.220708 0,0.04127 0.853795,0.225104 1.897322,0.408516 1.959334,0.344375 4.257406,0.743858 4.375,0.760522 0.03683,0.0052 0.06696,-0.0147 0.06696,-0.04427 z M 71.206676,40.799748 c -0.390927,-1.49098 -0.819575,-2.902687 -1.243697,-4.095985 -0.383415,-1.078767 -1.010567,-2.550628 -1.086808,-2.550628 -0.186541,0 -2.360286,3.575246 -3.236059,5.322476 l -0.40778,0.813549 2.07059,0.634981 c 2.205357,0.676309 4.20046,1.254353 4.233499,1.226578 0.01103,-0.0093 -0.137356,-0.617209 -0.329745,-1.350971 z M 60.581088,34.67671 c -0.0948,-1.273488 -0.319393,-3.013367 -0.399294,-3.093268 -0.136082,-0.136082 -4.692212,4.220481 -4.692212,4.486685 0,0.131997 1.458137,1.037299 2.455358,1.524436 0.441964,0.215898 1.225446,0.548375 1.741071,0.738839 l 0.9375,0.346296 0.02743,-1.348104 c 0.01508,-0.741456 -0.01635,-1.936154 -0.06985,-2.654884 z"
       id="path17438"
       inkscape:connector-curvature="0"
       transform="matrix(0.26458333,0,0,0.26458333,108.02286,75.187948)"
       sodipodi:nodetypes="cssssssssssssssscscccccsccsscccssssscsccccccccccccccsccscccssssssssssscccssscsccccccccscscccscscccsscccsssscscscsscccccc" />
    <path
       style="fill:#00ffd6;fill-opacity:1;stroke:none;stroke-width:0.06313454"
       d="m 103.63782,66.478495 c -0.29515,-0.03173 -1.03774,-0.08218 -1.64541,-0.136659 -4.18182,-0.3749 -8.564768,-1.009005 -12.634716,-1.814283 C 86.784033,64.018329 85.121673,63.589365 78.34853,61.960308 73.422528,60.775519 70.875801,60.264262 68.152303,59.913408 64.599234,59.455685 64.71024,59.517878 53.923279,59.475393 46.575937,59.446456 46.828913,59.428354 43.076844,59.122429 36.827566,58.612894 32.07218,57.869464 27.556798,56.564734 19.973753,54.373595 14.285543,51.56701 10.286141,47.553812 8.1448676,45.405152 6.641881,43.241973 5.4756337,40.623008 3.3612443,35.874862 2.8726115,30.743607 3.819953,23.639818 4.5975144,17.809152 6.123313,12.442588 8.0708183,9.0296977 9.9932227,5.6607956 12.279079,3.7732225 15.036071,3.4139953 c 3.818913,-0.497592 8.606873,2.1027515 14.201942,7.6381007 2.335532,2.310603 4.372665,4.726198 8.743331,10.516319 3.768922,4.992949 4.608015,6.045345 5.695296,7.406271 4.766112,5.965637 8.648549,9.518105 12.637938,11.507245 1.714837,0.855031 5.299645,2.117954 9.592948,3.454641 4.687663,1.459468 8.49343,2.460895 12.674723,3.32991 4.408924,0.916324 8.174021,1.487744 21.322779,3.247058 4.609692,0.61678 9.347372,1.32384 10.826912,1.643757 2.9925,0.647058 5.68325,1.81892 7.31844,3.159557 2.50062,2.050181 3.08288,4.556629 1.6398,6.654072 -0.47832,0.695225 -1.36729,1.554848 -2.14323,2.06698 -1.80033,1.188246 -4.99064,2.150236 -7.84821,2.380906 -2.07703,0.33018 -4.00121,0.211626 -6.06092,0.05968 z"
       id="path17440"
       inkscape:connector-curvature="0"
       transform="matrix(0.26458333,0,0,0.26458333,108.02286,75.187948)"
       sodipodi:nodetypes="cssssssssssssssssssssccsccc" />
    <path
       style="fill:#ffffff;stroke:none;stroke-width:0.08928572"
       d="m 59.593662,38.311646 c -1.515481,-0.54854 -4.07509,-1.905723 -4.172672,-2.203411 -0.04407,-0.134436 2.345751,-2.525985 3.857761,-3.865217 1.097958,-0.972493 1.081017,-0.980178 1.252883,1.048457 0.1176,1.388112 0.213549,5.398645 0.09188,5.388223 -0.04403,-0.0038 -0.495487,-0.174635 -1.029849,-0.368052 z"
       id="path17448"
       inkscape:connector-curvature="0"
       transform="matrix(0.26458333,0,0,0.26458333,108.02286,75.187948)"
       sodipodi:nodetypes="scsscs" />
    <path
       style="fill:#ffffff;stroke:none;stroke-width:0.08928572"
       d="m 71.300264,42.079618 c -0.04911,-0.01752 -1.40625,-0.342213 -3.002233,-0.817024 -1.595982,-0.474812 -3.065699,-0.973434 -3.065699,-0.973434 -0.135871,-0.0824 2.589522,-4.773868 3.403072,-5.889825 0.338869,-0.46483 0.276323,-0.394121 0.936885,1.230635 0.703182,1.729587 2.086276,6.604871 1.981879,6.546712 0.104397,0.05816 -0.204797,-0.07954 -0.253904,-0.09706 z"
       id="path17450"
       inkscape:connector-curvature="0"
       transform="matrix(0.26458333,0,0,0.26458333,108.02286,75.187948)"
       sodipodi:nodetypes="cscssccc" />
    <path
       style="fill:#ffffff;stroke:none;stroke-width:0.08928572"
       d="m 84.82705,45.0224 c -3.722461,-0.571064 -4.228537,-0.680499 -4.251117,-0.840016 -0.04376,-0.309168 2.144881,-4.117477 3.313804,-5.741662 l 0.451631,-0.731177 0.540608,1.134349 c 0.834582,1.751192 1.612071,4.557868 2.044987,6.375428 0.07417,0.310647 0.01811,0.187285 -2.099913,-0.19692 z"
       id="path17452"
       inkscape:connector-curvature="0"
       transform="matrix(0.26458333,0,0,0.26458333,108.02286,75.187948)"
       sodipodi:nodetypes="csccsccc" />
    <path
       style="fill:#ffffff;stroke:none;stroke-width:0.08928572"
       d="M 95.77996,46.590265 C 94.51165,46.403117 93.28733,46.255031 93.116541,46.22299 l -0.341648,-0.01474 0.698946,-1.357736 c 0.916473,-1.780291 2.777517,-4.831149 2.945539,-4.830613 0.09231,2.95e-4 0.729375,1.556194 1.22062,2.946308 0.373488,1.056889 1.224998,3.814903 1.224998,3.997159 0,0.13749 -0.643158,-0.01278 -3.085036,-0.3731 z"
       id="path17454"
       inkscape:connector-curvature="0"
       transform="matrix(0.26458333,0,0,0.26458333,108.02286,75.187948)"
       sodipodi:nodetypes="cccscsscc" />
    <path
       style="fill:#ffffff;stroke:none;stroke-width:0.08928572"
       d="m 112.61103,49.224863 c -0.4629,-0.144235 -3.33702,-0.696904 -4.66428,-0.900724 -0.69978,-0.107462 -1.31289,-0.20842 -1.31652,-0.244199 -0.0198,-0.195306 3.32514,-3.383272 5.1002,-4.688472 0.98411,-0.723614 1.15906,-1.015956 1.29073,-0.884285 0.20864,0.15566 0.21451,4.924603 0.094,6.043273 -0.0676,0.811689 0.0743,0.91412 -0.50412,0.674407 z"
       id="path17456"
       inkscape:connector-curvature="0"
       transform="matrix(0.26458333,0,0,0.26458333,108.02286,75.187948)"
       sodipodi:nodetypes="csssccc" />
  </g>
</svg>
